<?xml version="1.0" encoding="utf-8"?>
<!-- Generator: Adobe Illustrator 16.0.3, SVG Export Plug-In . SVG Version: 6.00 Build 0)  -->
<!DOCTYPE svg PUBLIC "-//W3C//DTD SVG 1.1//EN" "http://www.w3.org/Graphics/SVG/1.1/DTD/svg11.dtd">
<svg version="1.1" xmlns="http://www.w3.org/2000/svg" xmlns:xlink="http://www.w3.org/1999/xlink" x="0px" y="0px" width="500px"
	 height="500px" viewBox="0 0 500 500" enable-background="new 0 0 500 500" xml:space="preserve">
<g id="Layer_1">
	<g id="brand_x5F_banner_3_">
		<g>
			<path fill="#2E3333" d="M56.509,293.826c10.433,0,20.863-0.381,31.293-1.386l0.502,3.142c-2.765,0.879-9.174,2.262-12.064,2.64
				c-0.627,4.649-1.634,21.113-1.634,32.926c0,21.361,1.007,35.436,1.634,40.09c3.77,0.373,10.18,1.505,13.824,2.385l-0.377,3.016
				c-5.781-0.629-13.824-1.005-19.604-1.005c-5.027,0-13.07,0.251-18.096,1.005l-0.503-3.142c2.765-0.876,9.174-2.259,12.064-2.64
				c0.503-4.273,1.131-15.332,1.381-26.764c-4.399-0.504-9.55-0.754-13.948-0.754c-4.525,0-9.174,0.125-13.697,0.754
				c-1.258,5.152-3.016,14.074-3.016,18.846c0,4.902,1.004,8.928,5.403,11.438l-0.502,1.758c-2.891-0.375-8.042-0.501-12.063-0.501
				c-6.285,0-13.07,0.376-17.719,1.005l-0.503-3.142c2.764-0.876,9.174-2.259,12.064-2.64l20.609-73.013
				c-3.645-0.376-10.306-1.508-13.951-2.387l0.377-3.017C38.413,293.445,46.079,293.826,56.509,293.826z M64.929,337.809
				c0-19.48-0.627-34.682-1.255-38.955c-2.64-0.256-4.902-0.381-7.541-0.381c-2.639,0-5.404,0.125-8.043,0.381l-7.414,30.661
				c-1.256,5.277-2.01,8.294-2.01,8.294c4.021,0.628,8.293,0.879,12.314,0.879C55.379,338.688,60.53,338.563,64.929,337.809z"/>
			<path fill="#2E3333" d="M110.443,351.758c0,6.159,0.377,16.333,0.88,20.108c2.137,0.498,5.781,1.63,7.917,2.384l-0.25,2.388
				c-4.398-0.629-8.797-1.005-13.194-1.005c-4.273,0-8.548,0.251-12.818,0.754l-0.377-2.384c2.01-0.885,5.277-2.015,7.414-2.518
				c0.501-3.77,1.131-13.568,1.131-19.728v-10.556c0-6.66-0.253-12.694-1.007-20.359c-2.009-0.629-4.774-1.007-6.784-1.007v-2.638
				c6.03-0.378,11.937-1.132,17.843-2.515l0.88,0.504c-1.131,6.66-1.634,19.354-1.634,26.015V351.758z M105.919,305.386
				c-2.137-1.383-5.656-5.53-6.787-7.667c1.131-2.137,4.65-5.152,6.787-6.279c1.76,1.127,5.529,4.143,6.786,6.279
				C111.574,299.855,108.056,304.003,105.919,305.386z"/>
			<path fill="#2E3333" d="M141.76,371.866c2.639,0.373,8.043,1.508,10.557,2.384l-0.252,2.388
				c-4.775-0.754-9.675-1.005-14.45-1.005s-9.425,0.251-14.201,0.754l-0.377-2.384c2.011-0.885,5.277-2.015,7.414-2.518
				c0.503-3.77,1.131-13.568,1.131-19.728v-10.556c0-6.66-0.125-12.819-0.879-20.484c-1.885-0.629-4.9-1.007-6.787-1.007v-2.638
				c6.033-0.253,10.934-1.007,16.966-2.39l0.878,0.504c-1.003,6.284-1.38,13.32-1.38,19.604l0.502,0.126
				c2.137-6.032,9.426-17.344,15.204-20.234c3.52,0,7.666,0.754,11.06,2.012v1.761c-3.771,4.774-5.027,9.676-5.404,15.708h-2.766
				c0-2.766,0-4.902-0.25-7.665c-1.005-0.754-3.017-1.258-4.273-1.258c-5.653,0-12.188,11.938-14.073,17.344
				C140.38,358.796,140.63,362.813,141.76,371.866z"/>
			<path fill="#2E3333" d="M189.566,314.684c6.787,0,11.058,0.754,17.593,2.641c1.131-1.759,2.262-4.524,2.891-6.661l2.639,0.754
				c-1.633,6.661-2.764,18.349-2.764,39.965c0,6.279,0.125,13.818,0.879,20.104c1.885,0.629,4.902,1.004,6.787,1.004v2.641
				c-6.033,0.25-10.934,1.004-16.966,2.387l-0.879-0.501c1.007-6.284,1.384-13.323,1.384-19.603l-0.505-0.125
				c-4.899,6.908-13.948,17.088-21.866,20.229c-10.053,0-15.08-13.949-15.08-23.998C163.678,336.551,173.48,320.089,189.566,314.684
				z M182.277,367.212c6.282,0,16.587-11.688,18.852-17.594c0-16.208-0.253-20.229-0.882-24.126
				c-3.894-1.759-8.797-3.016-13.07-3.016c-3.642,0-6.532,0.503-9.298,3.016c-2.891,6.66-4.146,15.332-4.146,22.37
				C173.732,354.017,176.12,367.212,182.277,367.212z"/>
			<path fill="#2E3333" d="M270.369,325.995c0,16.59-11.059,36.693-22.62,48.631c-2.262,1.133-4.899,2.137-7.413,2.891
				c-3.897-0.879-8.168-7.289-14.074-43.856c-0.629-3.895-1.509-9.047-2.514-12.817c-1.885-0.629-4.902-1.007-6.787-1.007v-2.638
				c6.033-0.253,11.814-1.132,17.846-2.515l0.878,0.504c-0.752,2.64-1.003,4.648-1.003,7.289c0,3.645,0.502,7.917,1.131,11.688
				c5.404,32.55,8.42,35.688,10.682,35.688c9.424-11.562,13.823-22.37,13.823-37.195c0-4.148-0.754-7.793-2.638-11.563
				c-2.014-0.629-5.028-1.13-7.04-1.13l0.128-2.64c8.667-0.379,15.581-1.258,24.127-3.395l0.501,2.262
				c-1.884,1.383-3.645,2.265-6.032,3.52C269.993,321.723,270.369,323.984,270.369,325.995z"/>
			<path fill="#2E3333" d="M302.688,314.684c6.786,0,11.057,0.754,17.592,2.641c1.132-1.759,2.262-4.524,2.89-6.661l2.641,0.754
				c-1.633,6.661-2.766,18.349-2.766,39.965c0,6.279,0.125,13.818,0.879,20.104c1.887,0.629,4.902,1.004,6.789,1.004v2.641
				c-6.034,0.25-10.934,1.004-16.968,2.387l-0.877-0.501c1.005-6.284,1.383-13.323,1.383-19.603l-0.506-0.125
				c-4.899,6.908-13.947,17.088-21.864,20.229c-10.055,0-15.082-13.949-15.082-23.998
				C276.799,336.551,286.603,320.089,302.688,314.684z M295.399,367.212c6.282,0,16.587-11.688,18.852-17.594
				c0-16.208-0.253-20.229-0.882-24.126c-3.895-1.759-8.797-3.016-13.07-3.016c-3.645,0-6.532,0.503-9.298,3.016
				c-2.891,6.66-4.147,15.332-4.147,22.37C286.854,354.017,289.24,367.212,295.399,367.212z"/>
			<path fill="#2E3333" d="M396.687,294.953c-5.778,6.285-6.913,11.438-7.414,19.858h-3.141c-0.629-3.019-1.133-10.684-1.133-13.699
				c-3.895-1.886-8.669-2.64-12.942-2.64c-1.508,0-4.273,0.256-5.527,0.629c-0.632,4.272-1.261,19.227-1.261,31.921
				c0,21.363,1.007,35.561,1.636,40.215c3.77,0.373,10.052,1.505,13.824,2.385l-0.378,3.016c-5.781-0.629-13.821-1.005-19.603-1.005
				c-5.027,0-13.07,0.251-18.098,1.005l-0.504-3.142c2.766-0.876,9.176-2.259,12.066-2.64c0.504-3.77,1.383-15.076,1.383-32.42
				v-7.414c0-11.563-1.008-24.632-1.633-31.921c-1.258-0.373-3.898-0.629-5.406-0.629c-4.273,0-9.047,0.754-12.566,2.262
				c-1.258,3.9-2.137,10.055-2.515,14.077h-3.139c-0.253-6.535-0.882-14.077-4.147-19.858l0.754-2.513
				c12.065,1.386,21.363,1.386,33.426,1.386c12.063,0,23.751,0,35.816-1.386L396.687,294.953z"/>
			<path fill="#2E3333" d="M429.664,361.812l1.383,1.258c-4.524,6.154-11.185,11.432-18.346,14.447
				c-15.207,0-22.12-10.556-22.12-25.759c0-16.337,9.551-32.676,25.387-37.074c11.184,0,15.204,3.897,15.204,15.082
				c0,2.136-0.501,6.153-1.255,8.168c2.009,0.754,4.146,1.007,6.156,1.007l-0.125,2.638c-7.038-0.125-18.223,0.503-35.313,4.147
				c0,11.813,1.758,22.744,13.573,22.744C419.612,368.47,425.519,365.456,429.664,361.812z M400.636,342.454
				c6.913-2.259,13.32-3.892,20.484-5.149c0-10.052-0.882-14.828-8.547-14.828c-3.016,0-5.906,1.004-8.293,3.016
				C401.768,330.645,400.761,336.804,400.636,342.454z"/>
			<path fill="#2E3333" d="M467.088,314.684c6.785,0,11.059,0.754,17.594,2.641c1.129-1.759,2.259-4.524,2.891-6.661l2.637,0.754
				c-1.633,6.661-2.763,18.349-2.763,39.965c0,6.279,0.126,13.818,0.877,20.104c1.886,0.629,4.904,1.004,6.788,1.004v2.641
				c-6.034,0.25-10.934,1.004-16.965,2.387l-0.879-0.501c1.004-6.284,1.382-13.323,1.382-19.603l-0.503-0.125
				c-4.902,6.908-13.949,17.088-21.867,20.229c-10.052,0-15.079-13.949-15.079-23.998
				C441.2,336.551,451.002,320.089,467.088,314.684z M459.799,367.212c6.281,0,16.586-11.688,18.851-17.594
				c0-16.208-0.253-20.229-0.882-24.126c-3.895-1.759-8.797-3.016-13.07-3.016c-3.642,0-6.532,0.503-9.297,3.016
				c-2.891,6.66-4.146,15.332-4.146,22.37C451.255,354.02,453.642,367.212,459.799,367.212z"/>
			<path fill="#2E3333" d="M105.33,426.957c0-13.356,5.207-24.899,16.149-32.598c2.265,0.754,6.339,1.132,8.678,1.132
				c1.435,0,3.02,0,4.454-0.378l0.453,0.828c-3.396,3.246-4.302,8.452-4.302,13.13h-0.905c-0.68-2.262-1.207-4.831-1.433-7.244
				L126.534,401c-2.414-1.056-5.356-1.588-7.923-1.588c-4.451,6.717-7.091,16.527-7.091,24.525c0,9.359,2.187,16.904,11.546,16.904
				c3.468-2.262,5.431-7.392,5.431-11.542c0-0.609-0.074-1.133-0.227-1.813l0.378-0.379c1.886-0.078,4.075-0.301,5.81-0.83
				c-1.886,7.923-7.093,15.997-14.413,19.472C109.934,445.75,105.33,437.069,105.33,426.957z"/>
			<path fill="#2E3333" d="M145.927,438.125v1.209c3.244-2.868,6.415-9.207,7.773-13.359l1.057,0.23
				c-1.663,6.712-5.132,15.393-10.716,19.545c-3.02-0.982-3.622-3.699-3.622-6.868c0-9.134,0.829-18.49,0.829-27.62
				c0-4.452,0.077-10.413-0.302-14.034c-1.812-0.154-4.227-0.607-5.886-1.056v-1.059c5.434,0,10.111-1.056,14.866-3.548l0.604,0.979
				c-3.245,2.947-3.774,5.738-4.152,17.207C145.85,426.278,145.927,431.106,145.927,438.125z"/>
			<path fill="#2E3333" d="M172.486,408.016c8.077,0,10.491,5.887,10.491,13.961c0,9.508-4.454,20.146-13.206,23.773
				c-7.396,0-10.415-6.566-10.415-13.966C159.356,422.202,163.659,411.788,172.486,408.016z M171.43,412.545
				c-1.281,0-2.415,0.228-3.47,0.906c-2.339,5.131-3.247,11.619-3.247,17.282c0,4.677,1.284,10.487,5.963,10.487
				c1.282,0,2.416-0.226,3.471-0.905c2.265-4.905,3.396-11.927,3.396-17.281C177.543,418.052,176.413,412.545,171.43,412.545z"/>
			<path fill="#2E3333" d="M201.916,409c-1.433,5.51-3.396,17.808-3.396,24.22c0,2.265,0.605,5.81,2.792,6.565
				c5.207-3.694,10.188-18.185,10.188-24.524c0-1.583-0.301-4.528-0.603-6.113c2.188-0.147,4.074-0.602,6.262-1.132l0.454,0.377
				c-0.528,1.811-1.511,6.868-1.511,18.564c0,5.058,0.152,9.735,0.604,12.377c3.244-2.868,6.415-9.207,7.773-13.359l1.057,0.23
				c-1.663,6.712-5.284,15.393-10.867,19.545c-3.02-1.134-3.773-3.551-3.773-13.735c0.224-1.736,0.603-3.848,1.056-5.586
				l-0.754-0.074c-1.585,6.942-5.736,15.696-11.847,19.396c-4.679-0.834-6.188-5.662-6.188-10.416
				c0-7.167,2.038-13.958,2.038-21.132c0-0.979-0.077-1.96-0.227-2.94c-1.811-0.153-4.226-0.604-5.886-1.059v-1.056
				c4.15,0,8.225-0.301,12.3-1.132L201.916,409z"/>
			<path fill="#2E3333" d="M252.85,409.071c0.452,1.209,0.678,2.569,0.678,4.003c0,11.167-6.491,25.204-14.714,32.676
				c-6.794-1.514-9.055-7.17-9.055-14.188c0-8.681,4.453-18.188,11.469-23.469c-4.225-2.794-8.529-4.755-13.659-6.415l-1.96-0.678
				c0.452-2.037,0.679-3.702,0.679-5.739c0-0.979-0.078-2.036-0.151-3.163l1.208-0.154c0.15,0.526,0.525,1.435,1.054,2.339
				c0.833,1.433,3.17,2.791,6.264,4.529L252.85,409.071z M242.284,408.847l-3.923,4.907c-1.963,4.374-3.247,10.638-3.247,15.392
				c0,4.753,1.284,8.603,5.585,10.718c4.756-4.908,7.395-15.771,7.395-22.567c0-1.051-0.074-3.32-0.377-4.299
				C245.831,411.486,244.094,410.053,242.284,408.847z"/>
			<path fill="#2E3333" d="M286.5,394.886c-0.304,1.056-0.455,2.342-0.455,3.396c0,2.341,0.305,6.416,5.588,23.165l2.336,7.396
				l0.529-0.153c0-1.203,0.228-2.639,1.283-6.111l7.166-22.938c0.307-0.985,0.459-1.734,0.459-2.568
				c0-0.526-0.077-0.979-0.229-1.281l0.229-0.531c0.979,0.154,2.107,0.23,3.092,0.23c2.111,0,4.299-0.452,6.338-1.058l0.527,0.38
				c-1.283,6.788-1.658,18.787-1.658,29.048c0,8.53,0.754,17.282,1.584,20.755c-2.717,0.151-5.132,0.53-7.698,1.134l-0.527-0.382
				c1.055-5.66,1.733-15.921,1.733-25.203c0-7.47-0.225-11.396-0.828-16.525h-0.301c-8.53,23.848-9.207,28.222-9.509,31.771
				c-2.341,0.754-4.526,1.961-6.564,3.245l-0.906-0.604c0.077-0.828,0.15-1.585,0.15-2.489c0-7.019-3.923-19.091-7.545-29.962v0.077
				l-0.302,0.077c-2.794,16.825-4.152,30.712-4.227,38.862c-2.715,0.075-5.207,0.453-7.775,1.055l-0.45-0.38
				c3.321-9.807,9.131-37.125,9.96-47.461c-2.486-0.226-5.585-0.83-7.243-1.437l0.077-0.902c5.658,0,9.129,0,14.711-0.981
				L286.5,394.886z"/>
			<path fill="#2E3333" d="M332.829,438.125v1.209c3.246-2.868,6.414-9.207,7.772-13.359l1.056,0.23
				c-1.658,6.712-5.129,15.393-10.714,19.545c-3.019-0.982-3.625-3.699-3.625-6.868c0-9.134,1.134-18.49,0.606-27.62
				c-1.813-0.153-4.226-0.604-5.887-1.059v-1.056c4.151,0,8.754-0.301,12.831-1.132l0.528,0.984
				c-0.756,1.96-1.285,4.831-1.737,9.432C332.98,425.45,332.829,431.106,332.829,438.125z M331.017,402.96
				c-1.354-0.979-2.941-3.696-3.62-5.13c0.756-1.359,3.093-3.396,4.451-4.15c1.206,0.754,2.871,2.791,3.699,4.15
				C334.719,399.264,332.452,401.981,331.017,402.96z"/>
			<path fill="#2E3333" d="M373.047,418.432c0,7.773-1.886,12.981-1.886,21.05c3.244-2.866,6.489-9.354,7.85-13.507l1.054,0.23
				c-1.657,6.712-5.131,15.393-10.713,19.545c-2.943-1.059-3.622-3.628-3.622-6.868c0-4.754,1.96-13.585,1.96-18.34
				c0-2.26-0.603-5.81-2.791-6.566c-5.205,3.699-10.189,18.188-10.189,24.527c0,1.585,0.306,4.529,0.604,6.113
				c-2.185,0.151-4.071,0.604-6.262,1.134l-0.452-0.382c0.529-1.811,1.508-6.865,1.508-18.561c0-4.45-0.149-11.927-0.452-15.546
				c-1.812-0.153-4.226-0.604-5.887-1.059v-1.056c4.152,0,8.226-0.301,12.302-1.132l0.526,0.984
				c-0.903,2.337-1.283,6.111-1.283,12.752c-0.225,1.738-0.604,3.846-1.056,5.582l0.757,0.076
				c1.582-6.941,5.733-15.693,11.848-19.395C371.539,408.847,373.047,413.678,373.047,418.432z"/>
			<path fill="#2E3333" d="M389.497,426.808c0,5.207,0.757,11.017,5.511,13.206c3.998-2.867,6.79-7.097,8.45-11.548l1.735,0.68
				c-2.037,6.265-6.338,13.054-12.074,16.604c-6.715-1.585-8.98-7.625-8.98-14.49c0-11.472,6.34-22.26,17.812-22.867l0.829,0.53
				c0.227,4.831,0.679,8.301,1.51,13.132c2.944,0.226,5.205,0.75,5.205,0.75v1.057C403.458,423.861,396.365,424.92,389.497,426.808z
				 M398.477,422.656c-0.299-3.547-0.45-7.775-0.45-11.319c-5.511,1.507-8.529,8.227-8.529,13.883
				C392.291,424.168,395.534,423.26,398.477,422.656z"/>
		</g>
		<path fill="#9EAFB3" d="M411.361,174.518c0,59.749-72.643,108.184-162.269,108.184c-89.625,0-162.278-48.435-162.278-108.184
			S159.467,66.332,249.092,66.332C338.719,66.332,411.361,114.769,411.361,174.518z"/>
	</g>
</g>
<g id="Layer_2">
	
		<image display="none" overflow="visible" opacity="0.4" width="1300" height="1065" xlink:href="../../../../../Design/Portfolio/Portfolio/maybe/airava_tea/indian-elephant-203044.jpg"  transform="matrix(0.2255 0 0 0.2255 652.4102 255.4092)">
	</image>
	<g>
		<path fill="#2E3333" d="M256.8,162.569c2.122,2.721,4.993,4.22,8.083,4.22c0.001,0,0.001,0,0.001,0
			c2.764,0,5.454-1.239,7.575-3.489l42.736-45.364c2.693-2.86,4.037-6.795,4.008-10.712c-2.063-0.839-4.189-1.623-6.382-2.34
			l-8.216-2.316c-4.974-1.188-10.183-2.079-15.586-2.61l0.009-0.009c-15.604-4.157-24.51-3.056-27.798-2.645
			c-3.205,0.4-18.529,4.66-33.51,2.794l-8.217-0.796c-1.204-0.04-2.337-0.037-3.426-0.008c-1.437,4.743-0.674,10.199,2.393,14.13
			L256.8,162.569z"/>
		<path fill="#2E3333" d="M348.837,167.582c3.829-6.13,5.934-12.695,5.934-19.334c0-15.241-11.121-28.842-28.543-37.804
			c-0.598,4.629-2.52,9.076-5.73,12.485l-42.738,45.365c-3.511,3.726-8.084,5.777-12.875,5.777c-0.001,0,0,0-0.001,0
			c-5.307,0-10.345-2.561-13.827-7.023l-38.328-49.144c-3.923-5.029-5.27-11.746-4.18-18.005c-4.722,0.549-9.149,1.151-15.236,0.412
			c-2.457-0.296-25.472-14.651-35.883,11.372c-10.41,26.015-17.255,66.966-12.465,76.416c4.799,9.449,7.124,33.82,3.566,41.766
			c-3.566,7.945,9.31,24.239,15.883,18.216c0,0,4.248-6.162-0.682-7.263c-4.931-1.093-4.659-5.612-5.07-10.953
			s8.356-26.705,4.38-48.619c0,0-1.233-11.774,30.13-13.828c0,0,0.14,5.48,2.325,7.395c-6.162,3.146-22.596,72.989-19.17,77.508
			c0,0,11.364,2.054,24.65-1.364c0,0,1.364-6.984-2.054-12.876c0,0,0.682-11.914,8.768-24.378c0,0,16.984-15.003,20.673-24.757
			c13.303,7.469,30.147,12.16,48.479,12.16c7.864,0,15.447-0.863,22.604-2.44c0,0-3.016,21.889-7.675,31.47
			c-4.659,9.589-6.302,8.085-5.481,13.426c0,0,4.8,4.791,23.698,0.271c0,0,4.65-3.147,0.821-9.86c0,0,1.644-19.309,4.93-23.828
			c3.286-4.52,4.52-6.023,6.706-9.039c0,0,6.302-3.016,4.387,31.774c0,0-7.263,6.844-5.34,12.325c0,0,7.255,3.418,25.603-1.511
			c0,0,0.69-19.031-3.146-25.193c-1.75-2.818,0.41-8.217,0.822-15.341C345.182,196.036,353.867,182.947,348.837,167.582z
			 M160.819,147.029c-2.383-0.334-2.748-7.164-1.798-7.754c2.286-1.42,7.678,1.489,7.857,2.516
			C167.058,142.819,163.746,147.44,160.819,147.029z"/>
		<path fill="#2E3333" d="M208.578,215.999c0.309,2.259-5.649,27.834-3.389,32.559c0,0,9.141,2.669,25.061,0
			c0,0,3.019-4.082-2.568-10.785c-5.649-6.778,4.314-28.45,0.411-42.727C224.704,206.345,208.578,215.999,208.578,215.999z"/>
	</g>
</g>
</svg>
