<?xml version="1.0" encoding="utf-8"?>
<!-- Generator: Adobe Illustrator 16.0.3, SVG Export Plug-In . SVG Version: 6.00 Build 0)  -->
<!DOCTYPE svg PUBLIC "-//W3C//DTD SVG 1.1//EN" "http://www.w3.org/Graphics/SVG/1.1/DTD/svg11.dtd">
<svg version="1.1" xmlns="http://www.w3.org/2000/svg" xmlns:xlink="http://www.w3.org/1999/xlink" x="0px" y="0px" width="400px"
	 height="200px" viewBox="0 0 400 200" enable-background="new 0 0 400 200" xml:space="preserve">
<g id="NFO">
	<text transform="matrix(1 0 0 1 -124 444.334)"><tspan x="0" y="0" fill="#FFFFFF" font-family="'MyriadPro-Regular'" font-size="12">Lobster &amp; PlayfairDisplay Black</tspan><tspan x="0" y="14.4" fill="#FFFFFF" font-family="'MyriadPro-Regular'" font-size="12">$ = Franklin Gothic Heavy</tspan></text>
	<text transform="matrix(1 0 0 1 -213.7021 347)" fill="#009444" font-family="'FranklinGothic-Heavy'" font-size="67.5586">$</text>
	<g id="original_carrot">
		<g>
			<path fill="#F7941E" stroke="#754C29" stroke-width="5" stroke-miterlimit="10" d="M-165.003,386.584
				c-0.82,22.811-12.77,50.63-15.39,58.38c-2.01,5.931-3.25,13.87-11.5,13.87s-9.49-7.939-11.5-13.87
				c-2.63-7.75-14.57-35.569-15.39-58.38c-0.99-27.37,26.89-24.41,26.89-24.41S-164.013,359.214-165.003,386.584z"/>
		</g>
	</g>
</g>
<g id="karrot">
	<g>
		<g>
			<path fill="#76AD42" d="M58.865,119.689c-1.267,0-2.519-0.336-3.621-0.973c-1.677-0.968-2.876-2.525-3.375-4.386
				c-0.502-1.875-0.245-3.829,0.724-5.507l16.814-29.122c0.524-0.909,0.342-2.051-0.444-2.779
				c-6.341-5.858-9.34-12.915-8.915-20.972c0.198-3.848,3.378-6.864,7.238-6.864c0.816,0,1.625,0.138,2.404,0.411l7.72,2.735
				c2.352,0.827,4.09,2.816,4.636,5.176l0.567-0.982c-5.248-5.692-7.916-9.922-8.593-13.582c-0.922-4.998-0.111-9.745,2.409-14.11
				c2.744-4.753,6.777-8.12,11.987-10.007c2.189-0.795,4.549-1.199,7.009-1.199c2.535,0,5.245,0.43,8.054,1.277
				c0.235,0.071,0.479,0.107,0.723,0.107c0.769,0,1.443-0.345,1.854-0.946c0.89-1.303,1.455-2.75,1.683-4.304
				c1.055-7.063,5.144-9.578,8.618-9.578c1.487,0,2.973,0.422,4.415,1.254c3.074,1.775,5.08,4.95,5.109,8.087
				c0.027,2.954-1.596,5.568-4.57,7.362c-1.508,0.908-2.688,2.431-3.412,3.548c-0.581,0.886-0.415,2.08,0.38,2.79
				c5.337,4.816,8.304,10.442,8.828,16.729c0.163,2.04-0.508,3.983-1.889,5.479c-1.374,1.488-3.315,2.342-5.326,2.342
				c-0.537,0-1.078-0.061-1.608-0.18l-6.612-1.477c-1.99-0.451-3.663-1.727-4.663-3.435l-0.276,0.479
				c0.523,0.581,1.009,1.117,1.459,1.616c2.116,2.343,3.515,3.89,4.542,5.198c2.363,3,3.739,6.575,4.087,10.623
				c0.36,4.065-0.605,8.119-2.87,12.042c-3.159,5.471-7.813,8.978-13.835,10.423c-1.87,0.448-3.823,0.676-5.805,0.676h-0.001
				c-3.117,0-6.411-0.563-9.792-1.672c-0.226-0.075-0.447-0.111-0.671-0.111c-0.782,0-1.518,0.432-1.919,1.127l-16.79,29.082
				C63.846,118.302,61.442,119.689,58.865,119.689z M91.345,67.313c0.247-0.032,0.349-0.136,0.482-0.367
				c0.182-0.314,0.248-0.558,0.205-0.824L91.345,67.313z M98.668,37.7c-0.251,0-0.319,0-0.542,0.387
				c-0.136,0.235-0.155,0.417-0.076,0.694c0.014,0.019,0.106,0.174,0.447,0.54l0.878-1.521C99.045,37.721,98.816,37.7,98.668,37.7z"
				/>
			<path fill="#5D483A" d="M116.356,6.587c1.032,0,2.11,0.311,3.165,0.919c3.981,2.299,5.983,7.836,0.498,11.143
				c-1.786,1.076-3.205,2.766-4.219,4.33c-1.261,1.919-0.898,4.485,0.812,6.014c4.857,4.384,7.53,9.407,8.003,15.073
				c0.226,2.819-2.039,5.113-4.724,5.113c-0.347,0-0.701-0.038-1.058-0.119l-6.618-1.479c-1.938-0.439-3.385-2.038-3.659-4.012
				c-0.047-0.374-0.117-0.733-1.206-2.577l-3.691,6.395c3.73,4.159,5.772,6.336,7.106,8.036c2.064,2.62,3.256,5.719,3.563,9.293
				c0.317,3.58-0.539,7.105-2.544,10.578c-2.81,4.866-6.895,7.956-12.254,9.242c-1.687,0.404-3.427,0.607-5.222,0.607
				c-2.864,0-5.868-0.516-9.013-1.547c-0.479-0.16-0.967-0.236-1.45-0.236c-1.644,0-3.222,0.883-4.084,2.377l-16.79,29.082
				c-0.881,1.524-2.471,2.372-4.106,2.372c-0.807,0-1.623-0.206-2.371-0.638c-1.134-0.654-1.898-1.705-2.211-2.869
				c-0.316-1.182-0.186-2.465,0.475-3.607l16.814-29.123c1.11-1.923,0.724-4.351-0.912-5.864
				c-5.795-5.355-8.502-11.687-8.116-19.006c0.135-2.606,2.311-4.495,4.742-4.495c0.521,0,1.052,0.086,1.578,0.271l7.711,2.732
				c1.844,0.648,3.112,2.365,3.151,4.314c0.028,1.32,0.304,2.546,1.646,4.673l4.334-7.507c-5.79-6.067-8.602-10.296-9.228-13.68
				c-0.815-4.422-0.104-8.559,2.116-12.405c2.449-4.242,6.012-7.218,10.674-8.907c1.928-0.7,3.979-1.049,6.157-1.049
				c2.303,0,4.747,0.391,7.331,1.17c0.478,0.144,0.965,0.214,1.446,0.214c1.54,0,3.019-0.719,3.918-2.038
				c0.896-1.312,1.762-3.1,2.091-5.35C110.966,8.979,113.489,6.586,116.356,6.587 M99.103,43.272l3.878-6.716
				c-1.84-0.931-3.234-1.355-4.313-1.355c-1.271,0-2.104,0.59-2.707,1.637c-0.475,0.821-0.581,1.703-0.314,2.633
				C95.833,40.132,96.532,41.104,99.103,43.272 M91.128,69.824c1.283,0,2.237-0.543,2.864-1.629c0.679-1.175,0.732-2.35,0.165-3.551
				c-0.396-0.852-1.189-1.878-2.387-3.069l-4.202,7.278C88.952,69.5,90.138,69.824,91.128,69.824 M116.356,1.587L116.356,1.587
				c-4.31,0-9.8,3.064-11.09,11.701c-0.164,1.121-0.554,2.158-1.161,3.097c-3.009-0.9-5.929-1.355-8.679-1.355
				c-2.753,0-5.398,0.454-7.865,1.35c-5.775,2.092-10.25,5.83-13.297,11.106c-2.826,4.895-3.735,10.215-2.703,15.812
				c0.286,1.544,0.842,3.128,1.712,4.818l-2.739-0.971c-1.063-0.372-2.149-0.558-3.248-0.558c-5.192,0-9.469,4.058-9.735,9.238
				c-0.463,8.772,2.762,16.449,9.584,22.813l-16.707,28.937c-1.303,2.254-1.648,4.883-0.975,7.4
				c0.674,2.509,2.286,4.605,4.542,5.907c1.48,0.854,3.165,1.307,4.87,1.307c3.468,0,6.7-1.866,8.436-4.871l16.682-28.894
				c3.563,1.142,7.027,1.717,10.326,1.717c2.179,0,4.327-0.25,6.388-0.745c6.716-1.612,11.902-5.517,15.418-11.604
				c2.527-4.377,3.602-8.926,3.194-13.52c-0.347-4.043-1.622-7.684-3.794-10.833l2.229,0.498c0.699,0.158,1.425,0.239,2.147,0.239
				c2.706,0,5.317-1.146,7.163-3.146c1.833-1.986,2.761-4.67,2.545-7.366c-0.574-6.879-3.75-12.999-9.442-18.209
				c0.789-1.161,1.646-2.045,2.442-2.525c3.71-2.236,5.816-5.708,5.781-9.527c-0.038-4.066-2.475-7.985-6.359-10.228
				C120.22,2.136,118.262,1.587,116.356,1.587L116.356,1.587z"/>
		</g>
	</g>
	<g>
		<g>
			<g>
				<path fill="#CF6228" d="M85.974,131.378c-14.545,23.225-43.669,44.975-51.045,51.461c-5.649,4.959-11.705,12.469-20.283,7.518
					c-8.577-4.953-5.101-13.953-3.631-21.324c1.918-9.637,6.204-45.729,19.043-69.938c15.4-29.051,42.611-9.237,42.611-9.237
					S103.433,103.516,85.974,131.378z"/>
				<path fill="#5D483A" d="M71.808,85.764c-5.186-2.994-15.474-7.559-26.115-4.5c-7.498,2.155-13.651,7.682-18.285,16.425
					c-11.01,20.755-15.88,50.185-18.222,64.327c-0.455,2.754-0.815,4.93-1.114,6.428c-0.183,0.918-0.398,1.863-0.617,2.822
					c-1.563,6.863-3.705,16.264,5.691,21.689c9.396,5.424,16.466-1.131,21.627-5.916c0.723-0.67,1.433-1.328,2.138-1.947
					c1.16-1.02,2.889-2.441,5.078-4.24c11.063-9.092,34.086-28.012,46.527-47.881c5.257-8.387,6.967-16.479,5.084-24.05
					c-2.673-10.745-11.77-17.371-16.955-20.365L71.808,85.764z M73.643,93.755c3.511,2.027,11.915,7.704,14.131,16.616
					c1.343,5.399,0.224,11.302-3.272,17.563l-14.705-8.49c-3.353-1.936-6.354,3.264-3.002,5.199l14.503,8.373
					c-4.733,6.869-10.688,13.594-16.81,19.754l-11.749-6.783c-3.353-1.936-6.354,3.264-3.001,5.199l10.306,5.949
					c-6.655,6.354-13.202,11.912-18.287,16.129l-6.693-3.865c-3.353-1.936-6.354,3.264-3.001,5.199l4.748,2.74
					c-1.59,1.311-2.895,2.395-3.861,3.242c-0.743,0.654-1.494,1.35-2.256,2.057c-5.591,5.184-9.359,8.113-14.546,5.119
					s-4.532-7.725-2.839-15.156c0.229-1.014,0.457-2.012,0.651-2.984c0.317-1.594,0.685-3.811,1.148-6.621
					c0.633-3.822,1.458-8.791,2.539-14.395l8.292,4.787c3.353,1.936,6.354-3.264,3.002-5.199l-9.617-5.551
					c-0.145-0.084-0.286-0.137-0.429-0.195c1.602-7.541,3.648-15.805,6.288-23.801l13.273,7.662
					c3.353,1.936,6.354-3.262,3.002-5.197l-14.246-8.225c1.633-4.344,3.456-8.53,5.498-12.381c0.591-1.114,1.216-2.143,1.857-3.127
					l7.906,4.564c3.353,1.936,6.354-3.264,3.001-5.199l-7.131-4.117c2.688-2.743,5.69-4.636,9.007-5.589
					c8.827-2.537,17.945,1.903,21.455,3.93L73.643,93.755z"/>
			</g>
		</g>
	</g>
</g>
<g id="logotype">
	<path fill="#5D483A" d="M351.686,119.558c-2.101-1.98-4.99-3.08-8.44-3.08c-2.81,0-5.39,0.539-7.649,1.58v-2.131l-4.771,0.939
		c-4.01,0.781-8.74,1.15-14.87,1.15c-1.699,0-3.449-0.08-5.199-0.25l-4.381-0.42v5.291c-0.33-0.461-0.699-0.9-1.1-1.32
		c-4.85-5.08-11.61-5.77-17.58-5.77c-3.729,0-6.979,0.33-9.92,1.039c-0.14-1.33-0.22-3.5-0.22-5.859c0-3,0.189-6.891,0.6-12.62
		l0.33-4.5l-4.5,0.21c-5.49,0.26-13.08,0.26-18.62,0.26c-6.29,0-21,0-31.41-0.26l-4.1-0.1v9.709l3.8,0.19
		c1.37,0.06,2.05,0.17,2.39,0.25c0.101,0.42,0.221,1.37,0.221,3.49v44.64c0,6.109-0.95,9.66-2.601,9.74l-3.81,0.189v9.68l4.07-0.07
		c1.409-0.029,2.88-0.059,4.409-0.09c3.82-0.09,7.771-0.17,11.641-0.17c6.66,0,12.95,0.141,17.12,0.23l5.43,0.121v-7.441
		c2.28,4.941,7.36,7.971,14.01,7.971c4.41,0,8.49-1.34,11.721-3.74c2.09,2.189,5.449,3.74,10.439,3.74l26.09-0.041
		c4.69,0,9.5,0.17,12.681,0.291l5.869,0.189v-10.02h-4c-3.739,0-3.739-0.32-3.739-3.381v-18.799c2,1.289,4.6,2.01,7.649,2.01
		c0.721,0,1.431-0.051,2.101-0.16c-0.011,0.24-0.011,0.49-0.011,0.73c0,18.15,9.051,28.559,24.83,28.559
		c10.591,0,19.051-6.76,22.62-18.09l1.141-3.629l-7.96-2.951l-1.78,2.471c-2.811,3.91-5.71,4.359-7.65,4.359
		c-5.029,0-6.26-5.949-6.37-11.25h23.33v-4c0-21.029-13.16-24.169-21-24.169c-8.14,0-14.7,2.45-19.34,6.989
		c-0.28-0.4-0.59-0.779-0.91-1.139 M261.195,157.827c0,1.279,0.14,2.5,0.41,3.65h-3.08c-2.25,0-6.02,0-6.02-10.4v-16.1
		c3.27,1.369,4.989,4.869,5.5,7.959l0.55,3.35h7.6C262.835,149.267,261.195,153.087,261.195,157.827z M258.445,112.718l-0.67,3.17
		c-0.57,2.719-2.46,6.26-5.27,7.85v-18.189c0-0.75,0.02-1.271,0.05-1.621c0.33-0.029,0.79-0.039,1.439-0.039h1.19
		c2.62,0,7.64-0.01,11,8.83H258.445z M268.186,144.708l-0.18-2.672c-0.051-0.709-0.091-1.379-0.131-2.01
		c1.36,1.131,2.98,1.932,4.79,2.301C270.985,143.036,269.495,143.827,268.186,144.708z"/>
	<g>
		<path fill="#C92C2C" d="M273.555,110.724c0,2.505,0.088,4.965,0.264,6.504l-2.065,0.438
			c-3.165-14.941-10.063-17.782-16.567-17.782h-1.187c-4.658,0-5.493,0.747-5.493,5.669v23.027h0.923
			c6.767,0,11.162-6.637,12.261-11.865h2.064c-0.263,3.955-0.351,6.635-0.351,8.744c0,1.539,0.044,2.77,0.044,4.043
			c0,2.945,0.131,5.934,0.571,12.789h-2.065c-1.1-6.68-5.758-11.91-12.524-11.91h-0.923v20.699c0,7.383,1.714,14.393,10.02,14.393
			v2.066c-4.043-0.088-11.074-0.264-18.545-0.264c-5.494,0-11.25,0.176-16.128,0.264v-1.803c5.492-0.264,6.416-7.186,6.416-13.734
			v-44.647c0-6.548-1.011-7.471-6.416-7.735v-1.801c10.459,0.264,25.048,0.264,31.509,0.264c5.492,0,13.227,0,18.809-0.264
			C273.73,103.838,273.555,107.735,273.555,110.724z"/>
		<path fill="#C92C2C" d="M324.785,168.116c5.76,0,11.78,0.262,14.55,0.352v-1.891c-5.449,0-7.739-1.631-7.739-7.381v-26.988
			c0-3.602,2.38-6.762,5.319-8.041c0.92-0.439,1.891-0.609,2.9-0.609c-2.72,1.799-4.61,4.299-4.61,8.389
			c0,3.871,2.721,6.461,8.04,6.461c4.92,0,8.261-3.43,8.261-8.83c0-4.131-1.801-9.1-8.261-9.1c-5.229,0-9.27,2.199-11.649,6.77
			v-6.461c-4.48,0.881-9.62,1.23-15.641,1.23c-1.8,0-3.689-0.09-5.58-0.27v1.891c3.78,0,5.051,2.51,5.051,7.91
			c0,0,0,20.393,0,28.568c0,8.178-10.11,8.178-10.11,0.65c0-8.332,0-24.08,0-24.08c0-6.24-0.43-10.02-2.94-12.609
			c-3.43-3.6-8.39-4.529-14.68-4.529c-6.28,0-10.72,1.01-14.41,2.898c-3.21,1.721-5.58,4.49-5.58,8.262
			c0,4.439,2.9,7.869,7.38,7.869c5.23,0,8.66-3.34,8.66-7.561c0-4.08-2.16-6.68-6.02-8.129c1.319-0.881,3.2-1.541,4.74-1.541
			c5.76,0,6.68,4.621,6.68,7.391v8.039c0,4.041-5.49,5.84-12.521,8.352c-7.909,2.59-11.43,6.59-11.43,12.699
			c0,6.189,4.13,10.33,11.34,10.33c5.58,0,10.37-2.68,12.88-6.82c0.08,3.609,2.7,6.83,9.271,6.82S324.785,168.116,324.785,168.116z
			 M289.146,159.446c-1.101,1.15-2.061,1.5-3.34,1.5c-2.59,0-4.57-1.67-4.57-6.369c0-4.4,1.72-7.561,4.4-10.15
			c1.27-1.279,2.77-2.73,3.51-3.959V159.446z"/>
		<path fill="#C92C2C" d="M387.432,151.673l1.538,0.572c-2.285,7.25-8.13,15.293-18.809,15.293c-11.558,0-20.83-6.416-20.83-24.566
			c0-17.314,10.107-24.697,23.159-24.697c10.503,0,17.007,5.67,17.007,20.172H366.25c-0.088,1.055-0.088,2.152-0.088,3.252
			c0,12.699,5.493,15.996,10.371,15.996C378.95,157.694,383.477,157.167,387.432,151.673z M365.942,136.731h10.415
			c0.088-8.789-1.187-16.348-4.526-16.348C368.667,120.384,366.558,124.823,365.942,136.731z"/>
	</g>
	<path fill="#5D483A" d="M101.075,124.106c-5.68,0-10.53,2.07-14.22,5.82l3.33-15.539c0.3-1.42-0.04-2.891-0.9-4.051
		c-0.859-1.149-2.2-1.879-3.64-1.99c-0.89-0.069-1.89-0.139-2.99-0.139c-12.76,0-28.16,9.879-28.16,22.148
		c0,3.221,1.03,10.43,10.141,11.32l-4.49,20.891c-0.34,1.59,0.11,3.24,1.2,4.43c1.1,1.199,2.699,1.789,4.319,1.59
		c0.2-0.029,0.44-0.029,0.891-0.029c4.399,0,8.67,3.398,13.189,7c4.931,3.92,10.03,7.979,16.24,7.979c4.98,0,10.7-3.898,11.84-14.84
		c0.061-0.58,0.021-1.148-0.12-1.699c0.41,0.029,0.84,0.039,1.28,0.039c2.63,0,5.26-1.1,7.85-2.828
		c2.25,1.828,5.351,2.828,9.12,2.828c2.221,0,4.391-0.859,6.57-2.619c3.94,2.619,9.03,2.619,11.18,2.619
		c5.07,0,8.67-1.359,11.21-3.139c2.71,2.09,6.67,3.139,11.83,3.139c6.33,0,10.37-2.119,12.9-4.52c2.63,2.84,6.37,4.52,10.72,4.52
		c4.28,0,7.521-0.729,9.96-1.879c0.94,1.18,2.37,1.879,3.9,1.879h17.75c8.74,0,12.729-5.77,12.729-11.139
		c0-4.49-2.939-8.1-6.88-8.73l8.98-15.641c0.89-1.539,0.89-3.449-0.011-4.99c-0.89-1.549-2.539-2.5-4.319-2.5h-16.7
		c-4.08,0-7.12,1.262-9.2,3.141c-2.13-2.219-5.479-3.73-10.399-3.73c-7.25,0-12.471,3.83-15.83,9.381
		c-0.19-1.24-0.29-2.609-0.29-4.18v-0.93c0-1.5-0.681-2.92-1.84-3.871c-1.171-0.949-2.7-1.33-4.171-1.02l-9.569,1.98
		c-1.931,0.4-3.44,1.879-3.87,3.799c-0.59,2.67-1.34,5.74-2.3,8.59c-0.73-2.35-1.28-4.93-1.28-8.549v-0.93
		c0-1.5-0.68-2.92-1.85-3.871c-1.16-0.949-2.69-1.33-4.17-1.02l-9.57,1.98c-1.92,0.4-3.43,1.879-3.86,3.799
		c-0.06,0.23-0.109,0.471-0.16,0.711c0.04-0.801-0.109-1.6-0.439-2.33c1.55-1.791,2.49-4.121,2.49-6.66
		c0-5.67-4.61-10.279-10.28-10.279c-5.63,0-10.21,4.609-10.21,10.279c0,1.641,0.39,3.199,1.08,4.57c-0.351,0.24-0.67,0.51-0.94,0.83
		c-0.93-1.08-2.29-1.691-3.72-1.691h-9.51"/>
	<g>
		<path fill="#F2C263" d="M75.133,160.718c6.862,1.518,13.727,8.514,22.174,8.514c1.782,0,3.63-0.264,5.543-1.057
			c-0.659,6.336-3.299,10.361-6.863,10.361c-9.438,0-17.752-14.98-29.433-14.98c-0.528,0-0.99,0-1.518,0.066l9.833-45.734
			c-5.741,2.375-9.24,7.324-9.24,14.387c0,3.365,0.859,3.893,0.925,4.488c-4.555,0-7.062-1.65-7.062-6.402
			c0-8.777,12.144-17.158,23.164-17.158c0.924,0,1.782,0.066,2.639,0.132L75.133,160.718z"/>
		<path fill="#F2C263" d="M115.393,129.04l-4.752,22.439c-0.133,0.725-0.266,1.451-0.266,2.045c0,1.451,0.661,2.508,3.301,2.508
			s6.072-3.695,8.711-5.807h2.244c-3.036,3.035-10.494,11.813-15.641,11.813c-4.289,0-7.193-1.584-8.051-5.016
			c-1.98,2.705-4.95,5.41-8.976,5.41c-6.336,0-8.184-4.486-8.184-8.379c0-11.352,4.092-24.947,17.29-24.947
			c1.585,0,3.234,0.66,4.423,1.65l0.396-1.717H115.393z M92.689,152.271c0,3.959,2.178,4.686,3.828,4.686
			c1.518,0,2.969-1.451,4.224-3.299c0.066-0.66,0.198-1.387,0.396-2.178l3.695-17.488c-1.055-0.926-2.309-1.188-3.233-1.188
			C96.649,132.804,92.689,143.296,92.689,152.271z"/>
		<path fill="#F2C263" d="M132.42,129.04l-4.751,22.439c-0.264,1.121-0.528,2.375-0.528,3.299c0,1.121,0.396,1.914,1.717,1.914
			c1.254,0,2.441-1.32,3.563-3.102c0-5.479,2.377-8.514,5.017-8.711c2.376-4.291,3.894-10.164,5.016-15.18l9.569-1.98v0.926
			c0,10.889,4.42,14.188,4.486,21.908l-0.066,1.387c1.849-1.65,3.499-3.365,4.291-4.289l1.716,2.244
			c-1.849,1.451-4.487,3.762-7.128,6.004c-1.717,3.631-5.479,6.139-11.614,6.139c-6.071,0-9.702-1.32-10.891-5.215
			c-2.177,2.904-4.618,5.215-6.862,5.215c-5.147,0-8.184-2.244-8.184-7.193c0-1.057,0.133-2.113,0.396-3.365l4.686-22.439H132.42z
			 M129.188,115.05c2.903,0,5.279,2.375,5.279,5.279s-2.376,5.213-5.279,5.213c-2.905,0-5.214-2.309-5.214-5.213
			S126.282,115.05,129.188,115.05z M138.161,153.128c-0.791,0-1.583-0.131-2.375-0.527c0,3.893,2.112,5.545,5.608,5.545
			c2.245,0,5.479-2.773,5.479-7.855c0-4.092-2.97-7.588-3.102-15.838c-1.056,3.234-1.98,7.457-3.432,10.758
			c1.584,0.527,2.178,1.715,2.178,3.695C142.518,151.413,140.471,153.128,138.161,153.128z"/>
		<path fill="#F2C263" d="M175.056,127.72v0.926c0,10.889,4.488,14.188,4.488,21.908c0,0.463,0,0.926-0.066,1.387
			c1.847-1.65,3.497-3.365,4.29-4.289l1.715,2.244c-1.847,1.451-4.486,3.762-7.127,6.004c-1.716,3.631-5.478,6.139-11.614,6.139
			c-7.591,0-11.285-2.178-11.285-8.646c0-5.279,2.376-8.314,5.015-8.512c2.377-4.291,3.895-10.164,5.016-15.18L175.056,127.72z
			 M161.197,153.128c-0.793,0-1.584-0.197-2.377-0.594c0,3.895,2.113,5.611,5.61,5.611c2.243,0,5.477-2.773,5.477-7.855
			c0-4.092-2.969-7.588-3.101-15.838c-1.057,3.234-1.979,7.457-3.433,10.758c1.585,0.527,2.179,1.715,2.179,3.695
			C165.553,151.413,163.507,153.128,161.197,153.128z"/>
		<path fill="#F2C263" d="M180.602,151.544c0-8.381,3.564-23.098,15.575-23.098c5.411,0,8.447,2.244,8.447,6.863
			c0,8.051-8.646,12.672-14.915,13.463c-0.132,1.057-0.198,2.047-0.198,2.838c0,4.355,2.178,5.676,4.751,5.676
			c3.103,0,5.741-1.781,8.448-4.225c0,7.129-5.741,8.977-12.341,8.977C184.032,162.038,180.602,157.22,180.602,151.544z
			 M198.354,131.944c-3.696,0-6.73,7.457-8.117,13.66c6.072-0.066,10.362-5.279,10.428-9.965
			C200.664,134.255,200.334,131.944,198.354,131.944z M222.375,156.099c0-3.102,2.113-4.025,4.224-4.025
			c1.849,0,3.103,1.715,3.103,3.826c0,3.367-2.441,6.139-7.721,6.139h-17.753l17.356-30.227c-1.519,0-3.102-0.131-4.355-0.131
			c-1.781,0-3.035,0.264-3.035,1.451c0.593,0,1.121,0.793,1.121,1.914c0,3.102-2.045,3.959-4.157,3.959
			c-1.849,0-3.102-1.715-3.102-3.826c0-3.367,2.44-6.139,7.72-6.139h16.698l-17.356,30.227c1.518,0.066,3.232,0.131,4.816,0.131
			c2.047,0,3.631-0.264,3.631-1.451C222.97,157.946,222.375,157.22,222.375,156.099z"/>
	</g>
</g>
<g id="icon" display="none">
	<g display="inline">
		<defs>
			<path id="XMLID_1_" d="M239,157h-78c-9.9,0-18-8.1-18-18V61c0-9.9,8.1-18,18-18h78c9.9,0,18,8.1,18,18v78
				C257,148.9,248.9,157,239,157z"/>
		</defs>
		<use xlink:href="#XMLID_1_"  overflow="visible" fill="#FFF0C1"/>
		<clipPath id="XMLID_5_">
			<use xlink:href="#XMLID_1_"  overflow="visible"/>
		</clipPath>
		<g clip-path="url(#XMLID_5_)">
			<g>
				<path fill="#76AD42" d="M186.117,126.31c-0.933,0-1.855-0.247-2.667-0.716c-1.237-0.715-2.12-1.864-2.487-3.236
					c-0.369-1.377-0.181-2.816,0.532-4.053l10.061-17.426c0.078-0.135,0.046-0.309-0.078-0.423
					c-4.021-3.717-5.925-8.205-5.654-13.337c0.146-2.835,2.489-5.058,5.334-5.058c0.602,0,1.197,0.102,1.77,0.302l2.893,1.025
					c-0.878-1.406-1.397-2.665-1.621-3.874c-0.596-3.234-0.071-6.304,1.56-9.127c1.765-3.055,4.354-5.218,7.7-6.429
					c1.418-0.516,2.944-0.778,4.534-0.778c1.615,0,3.334,0.271,5.108,0.807c0.046,0.014,0.095,0.021,0.143,0.021
					c0.071,0,0.203-0.017,0.278-0.127c0.446-0.653,0.729-1.378,0.844-2.155c0.726-4.859,3.652-6.588,6.149-6.588
					c1.054,0,2.141,0.306,3.144,0.884c2.175,1.256,3.538,3.44,3.559,5.7c0.012,1.237-0.392,3.568-3.22,5.273
					c-0.576,0.347-1.186,0.989-1.717,1.809c-0.079,0.121-0.053,0.279,0.053,0.373c3.393,3.063,5.278,6.652,5.614,10.675
					c0.119,1.485-0.389,2.955-1.394,4.042c-1.011,1.096-2.441,1.724-3.924,1.724c-0.396,0-0.794-0.045-1.184-0.133l-2.645-0.591
					c0.118,0.143,0.229,0.281,0.335,0.416c1.535,1.947,2.43,4.267,2.656,6.889c0.233,2.64-0.389,5.264-1.849,7.793
					c-2.033,3.521-5.031,5.778-8.913,6.71c-1.194,0.287-2.441,0.433-3.706,0.433l0,0c-1.972,0-4.048-0.354-6.173-1.05
					c-0.022-0.003-0.044-0.004-0.064-0.004c-0.138,0-0.238,0.049-0.302,0.159l-10.045,17.398
					C189.789,125.287,188.018,126.31,186.117,126.31z"/>
				<path fill="#5D483A" d="M220.515,57.638c0.618,0,1.263,0.186,1.894,0.55c2.382,1.376,3.58,4.688,0.298,6.667
					c-1.068,0.644-1.917,1.654-2.523,2.59c-0.755,1.148-0.538,2.684,0.485,3.598c2.906,2.624,4.505,5.629,4.788,9.019
					c0.135,1.686-1.22,3.059-2.826,3.059c-0.207,0-0.42-0.023-0.633-0.071l-3.96-0.885c-1.158-0.263-2.024-1.219-2.188-2.399
					c-0.028-0.224-0.07-0.438-0.722-1.542l-2.209,3.825c2.232,2.489,3.454,3.791,4.252,4.808c1.235,1.567,1.947,3.422,2.132,5.561
					c0.189,2.142-0.323,4.251-1.522,6.328c-1.681,2.911-4.125,4.76-7.331,5.529c-1.009,0.242-2.05,0.363-3.123,0.363
					c-1.714,0-3.512-0.309-5.394-0.926c-0.286-0.096-0.578-0.141-0.867-0.141c-0.983,0-1.927,0.527-2.443,1.422l-10.045,17.398
					c-0.527,0.913-1.479,1.42-2.459,1.42c-0.481,0-0.97-0.123-1.417-0.381c-0.678-0.392-1.136-1.021-1.322-1.718
					c-0.189-0.706-0.111-1.474,0.283-2.158l10.06-17.424c0.665-1.15,0.434-2.603-0.545-3.508c-3.467-3.204-5.087-6.992-4.856-11.371
					c0.08-1.559,1.383-2.689,2.838-2.689c0.312,0,0.63,0.052,0.944,0.162l4.612,1.635c1.104,0.388,1.862,1.415,1.886,2.581
					c0.017,0.79,0.182,1.523,0.984,2.796l2.594-4.491c-3.465-3.63-5.146-6.16-5.521-8.185c-0.487-2.646-0.063-5.12,1.267-7.422
					c1.466-2.538,3.597-4.318,6.386-5.328c1.153-0.419,2.381-0.628,3.684-0.628c1.378,0,2.84,0.234,4.386,0.701
					c0.286,0.086,0.577,0.128,0.865,0.128c0.922,0,1.807-0.43,2.345-1.22c0.536-0.785,1.054-1.854,1.251-3.2
					C217.29,59.068,218.8,57.637,220.515,57.638 M210.192,79.586l2.319-4.019c-1.101-0.557-1.935-0.811-2.579-0.811
					c-0.761,0-1.259,0.353-1.62,0.979c-0.284,0.491-0.348,1.019-0.188,1.575C208.235,77.707,208.654,78.289,210.192,79.586
					 M205.421,95.472c0.768,0,1.339-0.325,1.714-0.975c0.405-0.703,0.438-1.406,0.099-2.125c-0.236-0.51-0.712-1.123-1.428-1.836
					l-2.515,4.354C204.119,95.278,204.828,95.472,205.421,95.472 M220.516,52.638L220.516,52.638c-3.335,0-7.554,2.224-8.584,8.471
					c-1.348-0.284-2.667-0.428-3.939-0.428c-1.882,0-3.695,0.313-5.392,0.929c-3.908,1.415-6.94,3.948-9.008,7.527
					c-1.871,3.24-2.517,6.751-1.921,10.442c-0.171-0.012-0.342-0.017-0.514-0.017c-4.177,0-7.617,3.264-7.832,7.431
					c-0.277,5.27,1.525,10.106,5.23,14.081l-9.226,15.979c-1.048,1.818-1.325,3.932-0.782,5.954
					c0.539,2.014,1.835,3.703,3.649,4.751c1.193,0.688,2.548,1.052,3.919,1.052c2.791,0,5.392-1.501,6.788-3.919l9.197-15.93
					c1.788,0.449,3.534,0.675,5.223,0.675c1.46,0,2.903-0.169,4.289-0.501c4.511-1.083,8.14-3.812,10.495-7.892
					c1.722-2.983,2.453-6.101,2.173-9.269c-0.118-1.369-0.392-2.671-0.819-3.9c1.873-0.203,3.635-1.083,4.928-2.483
					c1.477-1.599,2.223-3.76,2.05-5.929c-0.334-4-1.952-7.599-4.815-10.737c2.633-1.722,4.119-4.335,4.092-7.226
					c-0.029-3.14-1.871-6.145-4.808-7.841C223.525,53.059,222.006,52.638,220.516,52.638L220.516,52.638L220.516,52.638z"/>
			</g>
			<g>
				<path fill="#CF6228" d="M202.338,132.298c-8.702,13.895-26.127,26.908-30.54,30.788c-3.38,2.967-7.003,7.461-12.135,4.498
					s-3.052-8.348-2.172-12.758c1.146-5.766,3.711-27.359,11.393-41.842c9.214-17.381,25.493-5.527,25.493-5.527
					S212.782,115.629,202.338,132.298z"/>
				<path fill="#5D483A" d="M193.861,105.008c-3.102-1.791-9.257-4.522-15.623-2.691c-4.486,1.289-8.168,4.596-10.94,9.826
					c-6.587,12.418-9.501,30.025-10.901,38.486c-0.272,1.647-0.488,2.949-0.667,3.846c-0.109,0.55-0.238,1.114-0.369,1.688
					c-0.936,4.106-2.217,9.73,3.405,12.976c5.621,3.246,9.851-0.676,12.939-3.539c0.432-0.4,0.856-0.795,1.278-1.165
					c0.694-0.61,1.729-1.46,3.038-2.537c6.619-5.439,20.393-16.758,27.837-28.646c3.145-5.018,4.168-9.859,3.041-14.389
					c-1.599-6.429-7.041-10.393-10.144-12.185L193.861,105.008z M194.96,109.789c2.1,1.213,7.128,4.609,8.454,9.941
					c0.804,3.23,0.134,6.762-1.958,10.508l-8.798-5.079c-2.006-1.158-3.802,1.952-1.796,3.11l8.677,5.01
					c-2.832,4.108-6.395,8.132-10.057,11.817l-7.029-4.058c-2.006-1.158-3.801,1.952-1.796,3.11l6.166,3.56
					c-3.981,3.801-7.898,7.127-10.94,9.648l-4.005-2.312c-2.006-1.158-3.801,1.952-1.796,3.11l2.841,1.64
					c-0.951,0.783-1.731,1.432-2.31,1.94c-0.445,0.392-0.895,0.808-1.35,1.229c-3.345,3.101-5.6,4.854-8.703,3.063
					c-3.103-1.791-2.712-4.62-1.698-9.067c0.138-0.606,0.273-1.203,0.39-1.785c0.19-0.953,0.41-2.28,0.688-3.961
					c0.379-2.287,0.872-5.261,1.519-8.612l4.961,2.864c2.006,1.157,3.802-1.952,1.796-3.11l-5.754-3.322
					c-0.086-0.05-0.171-0.081-0.256-0.116c0.958-4.511,2.183-9.455,3.762-14.24l7.941,4.585c2.006,1.158,3.802-1.952,1.796-3.11
					l-8.523-4.921c0.978-2.599,2.068-5.103,3.29-7.406c0.354-0.667,0.728-1.282,1.111-1.871l4.73,2.73
					c2.005,1.158,3.801-1.952,1.795-3.11l-4.266-2.463c1.607-1.642,3.404-2.773,5.388-3.344c5.281-1.518,10.736,1.139,12.837,2.351
					L194.96,109.789z"/>
			</g>
		</g>
	</g>
	<g id="XMLID_2_" display="inline">
		<path fill="#FFD89A" d="M239,49c6.617,0,12,5.383,12,12v78c0,6.617-5.383,12-12,12h-78c-6.617,0-12-5.383-12-12V61
			c0-6.617,5.383-12,12-12H239 M239,43h-78c-9.9,0-18,8.1-18,18v78c0,9.9,8.1,18,18,18h78c9.9,0,18-8.1,18-18V61
			C257,51.1,248.9,43,239,43L239,43z"/>
	</g>
</g>
</svg>
