<?xml version="1.0" encoding="utf-8"?>
<!-- Generator: Adobe Illustrator 16.0.3, SVG Export Plug-In . SVG Version: 6.00 Build 0)  -->
<!DOCTYPE svg PUBLIC "-//W3C//DTD SVG 1.1//EN" "http://www.w3.org/Graphics/SVG/1.1/DTD/svg11.dtd">
<svg version="1.1" id="Layer_1" xmlns="http://www.w3.org/2000/svg" xmlns:xlink="http://www.w3.org/1999/xlink" x="0px" y="0px"
	 width="500px" height="500px" viewBox="0 0 500 500" enable-background="new 0 0 500 500" xml:space="preserve">
<g id="logo_x26_type">
</g>
<g id="logo">
	<path fill="#485D72" d="M206.718,3.982c31.893,0,63.785,0,95.675,0c0.497,0.541,0.949,1.506,1.497,1.565
		c32.009,3.441,64.03,7.023,96.178,1.646c44.969-7.521,76.729,12.405,85.68,55.309c2.98,14.303,4.667,29.543,3.196,43.973
		c-3.813,37.245-9.569,74.293-14.816,111.38c-5.366,37.907-11.404,75.81-5.329,114.165c3.406,21.515,9.189,42.246,27.218,56.929
		c0,1.521,0,3.04,0,4.558c-2.201,5.095-5.209,9.999-6.447,15.319c-2.648,11.411-5.093,22.961-6.245,34.596
		c-0.83,8.381-4.927,12.164-12.398,13.533c-30.122,5.513-60.092,12.302-90.436,15.982c-21.244,2.571-43.115-0.479-64.504,1.339
		c-51.288,4.361-102.474,9.955-153.658,15.396c-14.119,1.502-28.119,4.201-42.172,6.344c-36.448,0-72.891,0-109.34,0
		c3.134-0.774,6.224-1.882,9.403-2.267c16.551-2,33.208-3.279,49.679-5.782c49.746-7.562,95.547-26.118,139.568-50.014
		c10.703-5.813,23.029-9.751,35.072-11.699c15.253-2.477,30.999-1.797,46.499-2.901c41.948-2.986,83.892-6.034,125.808-9.49
		c6.056-0.504,11.914-3.357,18.942-5.44c-17.873-39.83-28.732-79.654-31.213-124.379c-5.182,4.243-7.963,7.01-11.209,9.023
		c-3.219,2.005-6.78,4.202-10.401,4.652c-17.646,2.233-35.474,3.179-53.033,5.902c-66.623,10.327-133.146,21.33-199.766,31.712
		c-21.546,3.364-21.979,3.216-23.812,25.229c-0.032,0.376-0.071,0.753-0.075,1.133c-0.692,34.114-1.371,68.226-2.078,102.344
		c-0.082,3.91-0.336,7.817-0.627,14.273c-3.188-4.393-4.807-6.382-6.169-8.538c-9.859-15.576-17.933-32.334-34.138-43.255
		c-3.972-2.676-7.654-11.234-6.308-15.439c7.147-22.275,2.417-44.445,1.612-66.665c-0.24-6.637-2.371-10.272-10.014-10.489
		c-18.199-0.515-30.313-10.324-37.626-26.658c-2.126-4.743-4.625-9.336-6.952-13.991c0-8.35,0-16.707,0-25.056
		c9.434-15.54,24.259-22.075,38.51-16.972c-4.232,1.493-9.476,1.936-12.411,4.765c-2.845,2.739-5.532,10.757-4.466,11.593
		c5.281,4.146,11.61,8.075,18.035,9.056c2.332,0.352,8.247-7.495,8.594-11.912c2.105-26.758,4.782-53.655,4.011-80.412
		c-1.103-38.202-5.329-76.304-7.51-114.49c-0.65-11.347,1.082-22.832,1.721-34.253c0.646,0.158,1.288,0.314,1.933,0.473
		c3.689,9.281,7.378,18.562,9.747,24.526c11.698-3.87,19.968-7.83,28.639-9.144c9.282-1.405,18.939-0.317,28.433-0.317
		c0.368-1.548,0.739-3.097,1.105-4.647c-11.242-5.533-22.485-11.069-35.726-17.586c29.288-6.257,56.962-12.283,84.693-18.038
		C181.704,8.29,194.239,6.26,206.718,3.982z M157.213,80.369c32.941,49.719,70.9,92.455,115.17,131.513
		c26.854-45.9,48.857-91.497,84.133-131.513C289.979,80.369,225.075,80.369,157.213,80.369z M239.79,252.966
		c0.24-1.405,0.47-2.811,0.706-4.218c-40.143-33.426-89.312-56.235-119.671-101.916c-1.347,2.201-2.347,3.084-2.393,4.016
		c-1.815,36.333-3.43,72.678-5.378,109.005c-0.435,8.094,4.484,8.688,10.115,8.288c21.15-1.507,42.38-2.471,63.393-5.142
		C204.439,260.726,222.06,256.388,239.79,252.966z M315.951,244.973c0.622,1.406,1.249,2.809,1.87,4.216
		c28.102-1.427,56.211-2.675,84.28-4.591c2.353-0.163,5.944-4.57,6.369-7.392c5.009-33.628,9.634-67.318,14.115-101.024
		c1.036-7.774,1.136-15.674,1.665-23.513c-1.571-0.569-3.148-1.137-4.719-1.704C385.002,155.634,350.477,200.303,315.951,244.973z"
		/>
</g>
</svg>
