<?xml version="1.0" encoding="utf-8"?>
<!-- Generator: Adobe Illustrator 16.0.3, SVG Export Plug-In . SVG Version: 6.00 Build 0)  -->
<!DOCTYPE svg PUBLIC "-//W3C//DTD SVG 1.1//EN" "http://www.w3.org/Graphics/SVG/1.1/DTD/svg11.dtd">
<svg version="1.1" id="Layer_1" xmlns="http://www.w3.org/2000/svg" xmlns:xlink="http://www.w3.org/1999/xlink" x="0px" y="0px"
	 width="960px" height="560px" viewBox="0 0 960 560" enable-background="new 0 0 960 560" xml:space="preserve">
<path fill-rule="evenodd" clip-rule="evenodd" d="M487.755,316.927c-7.489,2.203-15.227,3.375-22.456,0.039
	c-11.292-5.21-17.024-15.136-18.979-26.902c-1.405-8.46-1.305-17.168-1.897-25.764c-0.12-1.744-0.333-3.481-1.672-5.645
	c-0.803,1.019-1.715,1.971-2.393,3.066c-7.667,12.384-15.227,24.836-23.007,37.148c-1.371,2.171-3.317,4.709-5.538,5.442
	c-3.537,1.169-7.89,2.116-11.239,1.063c-4.766-1.499-7.333-5.997-7.712-11.223c-0.342-4.717-0.523-9.445-1.79-14.985
	c-2.767,4.012-5.668,7.938-8.272,12.054c-5.658,8.941-11.701,17.538-22.541,20.587c-2.806,0.789-6.288,0.49-9.105-0.413
	c-3.445-1.105-5.705-0.521-8.633,1.532c-4.25,2.979-8.924,6.308-13.833,7.2c-11.989,2.182-18.49-4.289-20.07-15.757
	c-1.187-8.613-0.23-17.536-0.046-26.317c0.075-3.555,0.631-7.101,0.968-10.65c-0.395-0.162-0.789-0.324-1.183-0.486
	c-1.63,2.821-3.242,5.652-4.893,8.461c-4.084,6.947-8.122,13.922-12.304,20.809c-2.584,4.256-6.634,4.478-10.455,2.434
	c-4.994-2.672-8.834-6.587-8.667-12.903c0.287-10.844,0.638-21.687,0.942-32.53c0.018-0.635-0.134-1.273-1.389-2.375
	c-8.704,17.906-17.315,35.857-26.17,53.688c-2.481,4.997-5.239,9.988-8.692,14.328c-2.593,3.26-7.085,1.753-10.638-2.831
	c-2.594-3.348-0.694-5.336,1.748-7.957c3.448-3.702,6.465-7.964,8.924-12.397c5.139-9.267,9.795-18.801,14.644-28.228
	c4.805-9.342,9.757-18.611,14.363-28.05c5.1-10.451,9.88-21.059,14.804-31.596c1.48-3.168,3.994-4.334,7.342-3.563
	c4.413,1.017,7.206,4.58,6.787,9.034c-0.262,2.78-0.698,5.667-1.734,8.232c-6.829,16.905-8.077,34.766-9.318,52.639
	c-0.069,0.984-0.007,1.99,0.108,2.973c0.095,0.81,0.36,1.599,0.945,4.056c3.075-3.493,6.243-5.806,7.666-8.917
	c9.329-20.403,18.309-40.967,27.324-61.512c1.245-2.837,2.065-5.86,3.064-8.803c1.17-3.449,5.207-5.965,8.113-5.038
	c4.162,1.327,6.367,5.34,5.134,9.831c-2.623,9.56-5.653,19.016-8.028,28.635c-4.925,19.954-9.491,40.005-9.613,60.715
	c-0.02,3.428,0.605,6.953,1.526,10.269c1.527,5.498,2.542,6.043,7.686,3.271c4.333-2.335,8.489-5.225,12.123-8.529
	c1.674-1.523,2.579-4.592,2.695-7.014c0.692-14.479,4.753-27.704,13.655-39.277c2.314-3.009,4.545-6.135,7.221-8.8
	c3.675-3.662,8.478-4.811,13.405-3.567c5.493,1.385,7.837,7.315,5.729,13.333c-4.993,14.253-12.672,26.982-22.005,38.777
	c-1.416,1.789-2.657,3.717-3.979,5.581c0.307,0.405,0.614,0.811,0.921,1.216c2.192-1.373,4.608-2.488,6.54-4.162
	c11.376-9.858,17.928-23.334,26.109-35.556c3.725-5.564,6.304-11.892,9.466-17.838c1.615-3.037,0.796-4.466-2.412-5.936
	c-6.577-3.014-12.46-7.167-15.039-14.407c-0.542-1.521-0.625-4.38,0.246-5.01c2.475-1.788,5.511-2.869,8.458-3.828
	c0.29-0.095,1.833,2.488,2.185,3.973c1.12,4.734,3.661,7.956,8.305,9.741c2.431,0.935,3.688,0.645,4.568-1.844
	c1.495-4.229,3.14-8.407,4.745-12.597c1.497-3.907,5.147-5.799,8.702-4.543c4.246,1.5,5.471,4.513,3.629,9.205
	c-1.45,3.694-2.937,7.379-4.549,11.005c-1.394,3.134-0.715,5.037,2.779,5.809c4.708,1.039,9.366,2.318,14.093,3.251
	c3.236,0.639,5.265-0.335,6.896-3.884c5.108-11.114,10.94-21.895,16.352-32.874c1.811-3.673,4.568-4.066,7.858-2.791
	c4.172,1.618,5.856,5.052,4.605,8.503c-3.491,9.637-6.83,19.33-10.412,28.933c-1.281,3.434-0.527,5.016,3.208,5.229
	c15.252,0.87,30.502,1.799,45.75,2.736c0.973,0.06,1.922,0.415,2.892,0.572c9.33,1.509,9.624,1.3,11.745-8.111
	c0.363-1.615,0.574-3.297,1.177-4.821c1.872-4.738,4.186-5.81,8.325-4.075c3.729,1.563,5.021,5.44,3.959,9.453
	c-3.094,11.673-5.893,23.425-8.777,35.153c-0.193,0.785-0.138,1.633-0.281,3.568c2.041-1.013,3.653-1.487,4.861-2.463
	c10.034-8.099,19.104-17.066,27.695-26.795c7.545-8.545,13.656-17.405,16.998-28.127c1.808-5.801,0.624-8.704-4.783-10.855
	c-12.975-5.162-26.236-6.305-39.08,0.284c-2.673,1.372-4.897,4.604-6.17,7.49c-1.938,4.393-5.785,5.039-8.922,4.105
	c-1.495-0.445-2.846-5.499-2.275-8.015c2.031-8.959,9.543-13.319,17.281-15.546c16.511-4.749,32.911-2.791,47.313,6.67
	c10.157,6.673,12.035,12.421,6.025,25.311c-3.136,6.726-8.351,12.637-13.31,18.318c-6.507,7.455-13.645,14.364-20.602,21.419
	c-2.662,2.699-5.506,5.233-8.396,7.688c-2.391,2.029-4.975,3.831-7.473,5.734c0.373,0.591,0.745,1.182,1.118,1.773
	c6.548,2.178,12.968,5.16,19.692,6.223c3.814,0.604,8.238-1.643,12.185-3.144c3.847-1.464,7.767-3.159,11.058-5.567
	c4.881-3.573,9.676-7.468,13.722-11.937c7.448-8.228,15.577-15.235,25.927-19.624c5.91-2.507,11.789-2.401,17.535-0.55
	c2.133,0.688,4.271,3.324,5.014,5.54c0.378,1.124-2.074,3.605-3.693,4.928c-11.244,9.185-24.463,14.972-37.313,21.391
	c-6.85,3.422-15.154,19.551-13.534,26.497c8.94-0.298,15.266-5.964,21.671-11.043c24.324-19.291,44.521-42.487,62.789-67.44
	c3.017-4.119,5.7-8.483,8.521-12.745c2.451-3.702,5.905-4.07,10.252-0.797c3.174,2.389,3.671,5.184,1.05,8.56
	c-13.427,17.3-23.683,36.299-29.413,57.488c-1.992,7.37-2.706,15.086-4.004,22.644c0.701,0.395,1.401,0.79,2.103,1.185
	c3.014-2.799,6.313-5.35,8.99-8.439c10.218-11.795,17.486-25.569,25.621-38.766c8.663-14.054,17.473-28.018,26.296-41.972
	c1.658-2.623,3.702-4.813,7.315-2.752c3.254,1.855,5.858,3.982,4.35,8.265c-5.493,15.586-9.633,31.475-9.423,48.131
	c0.156,12.414-0.691,24.979,1.335,37.232c0.431,2.604,1.77,5.574,0.013,7.612c-3.015,3.498-6.397-2.282-7.009-5.493
	c-1.792-9.41-3.729-18.865-4.435-28.39c-0.754-10.189-0.17-20.478-0.17-30.723c-0.445-0.261-0.892-0.521-1.337-0.783
	c-1.959,2.548-4.15,4.95-5.836,7.667c-7.745,12.481-15.708,24.85-22.872,37.661c-4.439,7.938-9.848,14.746-16.266,21.144
	c-5.499,5.482-18.23,1.555-18.811-6.905c-0.762-11.116,1.263-21.739,3.558-32.422c0.359-1.674,0.622-3.369,0.929-5.055
	c-0.451-0.276-0.904-0.553-1.356-0.829c-3.658,3.846-7.189,7.822-10.997,11.514c-11.977,11.605-22.449,25.023-37.673,32.798
	c-6.008,3.068-9.161,5.983-9.632,13.959c-0.651,11.034-9.105,18.925-18.542,24.359c-13.796,7.944-28.392,14.253-44.442,15.898
	c-12.879,1.319-25.574-0.25-37.521-5.428c-7.35-3.186-12.748-9.062-16.593-15.891c-5.441-9.665-2.778-19.535,6.396-26.983
	c1.236-1.004,2.299-2.225,3.447-3.342c1.609-0.307,3.274-0.438,4.805-0.961c4.969-1.697,9.842-3.681,14.838-5.285
	c5.678-1.824,6.578-3.921,3.989-10.686c-2.721,0.224-5.503,0.334-8.244,0.733c-1.173,0.171-2.61,0.646-3.323,1.492
	C495.623,306.976,491.72,311.978,487.755,316.927z M512.302,315.834c-7.779,3.94-16.107,6.607-22.415,11.752
	c-7.75,6.321-9.899,12.988-2.369,22.782c5.547,7.217,13.56,9.964,22.115,11.015c15.261,1.875,29.942-0.542,44.052-6.733
	c12.599-5.527,23.935-12.506,28.817-26.228c1.086-3.048,1.055-7.401-0.326-10.248c-4.16-8.571-11.875-13.613-20.384-17.336
	c-1.529-0.67-3.728-0.83-5.274-0.274c-9.977,3.579-19.882,7.361-29.756,11.217c-2.932,1.145-3.582,2.979-2.279,6.328
	c1.628,4.189,2.391,8.804,2.902,13.306c0.311,2.739-1.454,5.438-4.547,3.862c-2.594-1.322-5.09-3.784-6.439-6.363
	C514.614,325.504,513.991,321.487,512.302,315.834z M454.955,275.205c0.656,4.906,0.922,9.076,1.832,13.102
	c0.937,4.143,1.803,8.578,3.987,12.084c2.142,3.438,5.446,7.313,9.045,8.453c8.851,2.807,22.289-4.156,25.362-12.247
	c2.792-7.347,8.046-11.12,15.241-12.483c3.484-0.66,4.441-2.447,5.023-5.567c1.432-7.658,3.055-15.292,4.953-22.848
	c1.377-5.48,0.607-6.222-5.188-5.798c-9.24,0.677-18.518,1.046-27.783,1.116c-8.627,0.065-17.262-0.379-25.889-0.703
	c-3.156-0.119-4.911,0.827-5.093,4.332C456.078,261.752,455.431,268.845,454.955,275.205z M405.175,295.227
	c3.873-4.383,7.3-7.362,9.608-11.044c6.82-10.875,13.248-21.999,19.607-33.152c0.332-0.582-1.176-3.135-2.193-3.408
	c-4.955-1.331-10.066-2.066-15.058-3.278c-3.334-0.81-4.971,0.312-5.766,3.552c-1.813,7.392-4.158,14.671-5.602,22.129
	C404.279,277.727,402.813,285.565,405.175,295.227z M545.129,296.436c-0.079-0.498-0.158-0.997-0.236-1.495
	c-4.85-2.521-10.218-2.539-15.557-2.31c-1.453,0.063-3.832,0.81-4.108,1.741c-0.765,2.573-0.723,5.409-0.753,8.144
	c-0.004,0.284,1.811,1.054,2.496,0.807C533.06,301.128,539.085,298.756,545.129,296.436z M368.626,260.938
	c-0.581-0.322-1.162-0.644-1.743-0.966c-2.681,4.679-5.363,9.357-8.044,14.037c0.764,0.422,1.528,0.845,2.292,1.267
	C363.629,270.497,366.127,265.718,368.626,260.938z"/>
</svg>
