<?xml version="1.0" encoding="utf-8"?>
<!-- Generator: Adobe Illustrator 16.0.3, SVG Export Plug-In . SVG Version: 6.00 Build 0)  -->
<!DOCTYPE svg PUBLIC "-//W3C//DTD SVG 1.1//EN" "http://www.w3.org/Graphics/SVG/1.1/DTD/svg11.dtd">
<svg version="1.1" id="Layer_1" xmlns="http://www.w3.org/2000/svg" xmlns:xlink="http://www.w3.org/1999/xlink" x="0px" y="0px"
	 width="500px" height="500px" viewBox="0 0 500 500" enable-background="new 0 0 500 500" xml:space="preserve">
<path fill="#BFCADB" d="M206.511,2.8c32.046,0,64.092,0,96.135,0c0.5,0.543,0.953,1.513,1.505,1.573
	c32.162,3.458,64.338,7.057,96.64,1.655c45.184-7.557,77.095,12.464,86.09,55.575c2.994,14.371,4.689,29.685,3.212,44.185
	c-3.833,37.423-9.615,74.649-14.888,111.915c-5.392,38.09-11.459,76.173-5.355,114.713c3.423,21.618,9.233,42.449,27.349,57.202
	c0,1.529,0,3.054,0,4.58c-2.212,5.119-5.234,10.047-6.478,15.393c-2.662,11.467-5.118,23.071-6.276,34.763
	c-0.834,8.42-4.95,12.222-12.457,13.598c-30.268,5.54-60.379,12.361-90.869,16.06c-21.348,2.583-43.321-0.482-64.813,1.345
	c-51.534,4.382-102.967,10.003-154.397,15.47c-14.187,1.51-28.253,4.222-42.375,6.375c-36.623,0-73.241,0-109.865,0
	c3.149-0.778,6.254-1.893,9.448-2.277c16.631-2.01,33.366-3.295,49.917-5.811c49.985-7.598,96.006-26.243,140.239-50.253
	c10.754-5.842,23.14-9.799,35.241-11.756c15.326-2.488,31.148-1.805,46.72-2.915c42.151-3,84.297-6.063,126.413-9.536
	c6.084-0.506,11.971-3.374,19.033-5.467c-17.959-40.021-28.871-80.038-31.363-124.976c-5.206,4.263-8.001,7.043-11.263,9.066
	c-3.234,2.015-6.813,4.223-10.451,4.675c-17.73,2.244-35.645,3.193-53.288,5.931c-66.943,10.377-133.785,21.432-200.726,31.864
	c-21.65,3.38-22.084,3.231-23.926,25.351c-0.032,0.379-0.071,0.756-0.075,1.138c-0.695,34.278-1.377,68.554-2.087,102.836
	c-0.082,3.929-0.338,7.854-0.63,14.342c-3.203-4.414-4.83-6.413-6.198-8.579c-9.908-15.651-18.019-32.49-34.301-43.464
	c-3.991-2.688-7.691-11.288-6.338-15.514c7.182-22.382,2.428-44.658,1.619-66.984c-0.241-6.669-2.382-10.322-10.063-10.539
	c-18.287-0.518-30.459-10.374-37.806-26.786c-2.136-4.766-4.647-9.381-6.986-14.059c0-8.39,0-16.787,0-25.176
	c9.479-15.614,24.376-22.181,38.696-17.054c-4.252,1.5-9.521,1.945-12.47,4.787c-2.859,2.753-5.559,10.81-4.488,11.649
	c5.307,4.165,11.666,8.113,18.122,9.099c2.343,0.354,8.286-7.53,8.635-11.969c2.115-26.887,4.804-53.914,4.03-80.798
	c-1.108-38.385-5.354-76.67-7.546-115.04c-0.653-11.402,1.087-22.941,1.729-34.418c0.649,0.159,1.293,0.316,1.942,0.476
	c3.707,9.326,7.414,18.651,9.793,24.644c11.754-3.889,20.063-7.868,28.775-9.188c9.327-1.412,19.031-0.318,28.57-0.318
	c0.369-1.556,0.742-3.112,1.109-4.67c-11.295-5.56-22.592-11.122-35.897-17.671c29.429-6.287,57.236-12.342,85.1-18.124
	C181.376,7.129,193.971,5.089,206.511,2.8z M156.768,79.554c33.099,49.958,71.241,92.899,115.724,132.145
	c26.983-46.12,49.092-91.936,84.537-132.145C290.172,79.554,224.956,79.554,156.768,79.554z M239.742,252.98
	c0.241-1.412,0.472-2.824,0.709-4.239c-40.335-33.587-89.741-56.505-120.246-102.405c-1.353,2.211-2.358,3.099-2.404,4.035
	c-1.824,36.508-3.446,73.027-5.404,109.528c-0.438,8.133,4.506,8.729,10.164,8.328c21.251-1.515,42.583-2.482,63.697-5.166
	C204.221,260.777,221.926,256.418,239.742,252.98z M316.269,244.948c0.625,1.414,1.255,2.823,1.879,4.237
	c28.237-1.434,56.48-2.688,84.685-4.613c2.364-0.163,5.974-4.592,6.4-7.427c5.033-33.79,9.68-67.642,14.183-101.509
	c1.041-7.812,1.142-15.75,1.673-23.626c-1.58-0.572-3.163-1.143-4.74-1.712C385.65,155.18,350.959,200.064,316.269,244.948z"/>
</svg>
