<?xml version="1.0" encoding="utf-8"?>
<!-- Generator: Adobe Illustrator 16.0.3, SVG Export Plug-In . SVG Version: 6.00 Build 0)  -->
<!DOCTYPE svg PUBLIC "-//W3C//DTD SVG 1.1//EN" "http://www.w3.org/Graphics/SVG/1.1/DTD/svg11.dtd">
<svg version="1.1" id="logo_x26_type" xmlns="http://www.w3.org/2000/svg" xmlns:xlink="http://www.w3.org/1999/xlink" x="0px"
	 y="0px" width="243.5px" height="197.5px" viewBox="0 0 243.5 197.5" enable-background="new 0 0 243.5 197.5"
	 xml:space="preserve">
<text transform="matrix(1 0 0 1 0.9209 160.8096)" display="none" fill="#485D72" enable-background="new    " font-family="'Gobold'" font-size="26.6816">Matthew Willis Bell</text>
<text transform="matrix(1 0 0 1 31.563 192.8271)" display="none" fill="#485D72" enable-background="new    " font-family="'GoboldThinLight'" font-size="26.6816">Graphic Designer</text>
<path fill="#BFCADB" d="M111.014,3c7.912,0,15.824,0,23.736,0c0.123,0.134,0.234,0.373,0.371,0.388
	c7.939,0.854,15.885,1.742,23.859,0.409c11.154-1.866,19.035,3.077,21.256,13.721c0.738,3.548,1.158,7.329,0.793,10.908
	c-0.947,9.24-2.375,18.431-3.676,27.632c-1.332,9.403-2.83,18.807-1.322,28.323c0.846,5.336,2.279,10.479,6.752,14.121
	c0,0.377,0,0.756,0,1.131c-0.547,1.265-1.293,2.48-1.6,3.801c-0.656,2.83-1.266,5.697-1.551,8.582
	c-0.207,2.08-1.223,3.019-3.074,3.356c-7.475,1.367-14.908,3.054-22.438,3.966c-5.271,0.639-10.695-0.119-16.002,0.332
	c-12.725,1.081-25.421,2.471-38.12,3.818c-3.503,0.373-6.975,1.042-10.461,1.572c-9.042,0-18.084,0-27.126,0
	c0.777-0.19,1.544-0.467,2.333-0.563c4.106-0.496,8.237-0.813,12.324-1.435c12.341-1.876,23.703-6.479,34.624-12.407
	c2.656-1.441,5.714-2.419,8.701-2.902c3.784-0.613,7.69-0.445,11.538-0.72c10.404-0.741,20.811-1.497,31.209-2.354
	c1.502-0.125,2.953-0.832,4.697-1.35c-4.434-9.881-7.127-19.76-7.74-30.855c-1.285,1.053-1.979,1.74-2.781,2.238
	c-0.799,0.498-1.684,1.043-2.58,1.154c-4.377,0.555-8.801,0.788-13.156,1.464c-16.527,2.562-33.031,5.292-49.559,7.867
	c-5.345,0.835-5.452,0.799-5.906,6.259c-0.009,0.094-0.018,0.188-0.02,0.281c-0.171,8.464-0.339,16.926-0.515,25.391
	c-0.021,0.969-0.084,1.938-0.156,3.541c-0.79-1.091-1.191-1.584-1.53-2.119c-2.445-3.862-4.448-8.021-8.469-10.729
	c-0.985-0.665-1.898-2.788-1.564-3.831c1.773-5.524,0.6-11.026,0.4-16.539c-0.061-1.646-0.589-2.547-2.484-2.603
	c-4.515-0.127-7.521-2.562-9.334-6.612c-0.528-1.177-1.147-2.315-1.725-3.472c0-2.07,0-4.145,0-6.216
	c2.34-3.854,6.018-5.476,9.553-4.21c-1.05,0.37-2.35,0.48-3.078,1.183c-0.706,0.68-1.373,2.669-1.108,2.876
	c1.31,1.028,2.881,2.003,4.474,2.246c0.579,0.088,2.047-1.859,2.133-2.955c0.521-6.638,1.186-13.311,0.994-19.948
	c-0.273-9.478-1.321-18.93-1.863-28.402c-0.161-2.815,0.269-5.664,0.428-8.498c0.159,0.039,0.319,0.078,0.479,0.118
	c0.915,2.302,1.829,4.604,2.418,6.084c2.901-0.96,4.953-1.942,7.104-2.269c2.302-0.349,4.698-0.078,7.054-0.078
	c0.091-0.384,0.183-0.769,0.273-1.153c-2.789-1.372-5.578-2.745-8.863-4.362c7.267-1.553,14.132-3.047,21.011-4.475
	C104.809,4.068,107.917,3.564,111.014,3z M98.732,21.95c8.172,12.334,17.589,22.936,28.571,32.625
	c6.662-11.387,12.121-22.698,20.871-32.625C131.67,21.95,115.567,21.95,98.732,21.95z M119.219,64.767
	c0.06-0.349,0.115-0.697,0.175-1.047c-9.958-8.292-22.157-13.951-29.688-25.283c-0.335,0.546-0.583,0.766-0.595,0.997
	c-0.45,9.014-0.851,18.029-1.334,27.041c-0.107,2.009,1.113,2.155,2.51,2.056c5.246-0.373,10.514-0.612,15.726-1.274
	C110.448,66.692,114.819,65.616,119.219,64.767z M138.113,62.784c0.154,0.349,0.309,0.697,0.463,1.046
	c6.973-0.354,13.945-0.663,20.908-1.139c0.584-0.04,1.475-1.134,1.58-1.834c1.244-8.343,2.391-16.7,3.502-25.062
	c0.258-1.929,0.281-3.889,0.414-5.834c-0.393-0.141-0.781-0.281-1.172-0.422C155.242,40.621,146.678,51.703,138.113,62.784z"/>
<g enable-background="new    ">
	<path fill="#485D72" d="M10.053,152.758l4.287-17.51h3.687v25.563h-3.531v-14.344l-3.153,14.344H8.841l-3.244-14.344v14.344H2.028
		v-25.563h3.687L10.053,152.758z"/>
	<path fill="#485D72" d="M31.692,152.797l1.199,8.014h-3.726l-0.716-4.795h-3.765l-0.729,4.795h-3.714l1.199-7.986l2.605-14.604
		H29.1L31.692,152.797z M27.966,152.797l-1.407-9.406l-1.407,9.406H27.966z"/>
	<path fill="#485D72" d="M44.043,138.219v3.205h-3.452v19.387h-3.687v-19.387h-3.453v-3.205H44.043z"/>
	<path fill="#485D72" d="M55.938,138.219v3.205h-3.452v19.387h-3.687v-19.387h-3.453v-3.205H55.938z"/>
	<path fill="#485D72" d="M58.283,138.219h3.687v9.681h3.218v-9.681h3.687v22.592h-3.687v-9.68H61.97v9.68h-3.687V138.219z"/>
	<path fill="#485D72" d="M72.262,138.219h9.563v3.205H75.95v6.476h5.055v3.231H75.95v6.461h5.875v3.219h-9.563V138.219z"/>
	<path fill="#485D72" d="M98.579,155.624l2.605-17.405h3.726l-1.198,8.014l-2.593,14.578h-5.055l-1.915-11.66l-1.902,11.66h-5.055
		l-2.605-14.604l-1.199-7.985h3.713l2.605,17.404l2.605-17.404h3.661L98.579,155.624z"/>
	<path fill="#485D72" d="M127.762,154.947l2.605-19.699h3.727l-1.197,9.068l-2.594,16.492h-5.055l-1.916-13.196l-1.902,13.196
		h-5.055l-2.604-16.52l-1.199-9.042h3.714l2.604,19.699l2.605-19.699h3.66L127.762,154.947z"/>
	<path fill="#485D72" d="M136.27,138.219h3.688v22.592h-3.688V138.219z"/>
	<path fill="#485D72" d="M143.41,160.809v-22.59h3.688v19.373h5.875v3.217H143.41z"/>
	<path fill="#485D72" d="M155.188,160.809v-22.59h3.688v19.373h5.875v3.217H155.188z"/>
	<path fill="#485D72" d="M167.029,138.219h3.688v22.592h-3.688V138.219z"/>
	<path fill="#485D72" d="M173.908,142.648c0-3.161,1.764-4.742,5.289-4.742c3.535,0,5.303,1.581,5.303,4.742v3.035h-3.688v-3.035
		c0-1.018-0.533-1.524-1.602-1.524h-0.027c-1.059,0-1.588,0.509-1.588,1.524v2.045c0,1.008,1.15,2.24,3.451,3.699
		c2.303,1.451,3.453,3.193,3.453,5.226v2.854c0,3.17-1.766,4.754-5.289,4.754c-3.535-0.008-5.305-1.594-5.305-4.754v-3.036h3.689
		v3.036c0,1.016,0.537,1.522,1.615,1.522c1.066,0,1.602-0.508,1.602-1.522v-2.58c0-1.096-1.15-2.371-3.451-3.83
		c-2.303-1.45-3.453-3.215-3.453-5.29V142.648z"/>
	<path fill="#485D72" d="M194.246,135.248h5.68c3.273,0.01,4.912,1.803,4.912,5.381v3.844c0,1.677-0.674,2.861-2.021,3.558
		c1.348,0.694,2.021,1.88,2.021,3.558v3.855c0,3.568-1.717,5.357-5.146,5.367h-5.445V135.248z M197.932,138.883v7.322h1.16
		c0.512,0,0.863-0.033,1.055-0.104c0.668-0.27,1.004-0.813,1.004-1.629v-3.844c0-1.164-0.535-1.746-1.604-1.746H197.932z
		 M197.932,149.852v7.322h1.615c1.066,0,1.604-0.576,1.604-1.731v-3.856c0-0.815-0.336-1.354-1.004-1.615
		c-0.191-0.078-0.543-0.117-1.055-0.117h-1.16V149.852z"/>
	<path fill="#485D72" d="M207.834,138.219h9.563v3.205h-5.875v6.476h5.055v3.231h-5.055v6.461h5.875v3.219h-9.563V138.219z"/>
	<path fill="#485D72" d="M220.131,160.809v-22.59h3.688v19.373h5.875v3.217H220.131z"/>
	<path fill="#485D72" d="M231.91,160.809v-22.59h3.686v19.373h5.877v3.217H231.91z"/>
</g>
<g enable-background="new    ">
	<path fill="#485D72" d="M42.117,188.307c0,3.326-1.642,4.994-4.925,5.002c-3.274,0-4.912-1.668-4.912-5.002v-16.521
		c0-3.327,1.637-4.989,4.912-4.989c3.283,0,4.925,1.662,4.925,4.989v2.957h-2.541v-2.957c0-1.659-0.791-2.493-2.371-2.502h-0.026
		c-1.572,0-2.358,0.834-2.358,2.502v16.521c0,1.666,0.79,2.5,2.371,2.5c1.589,0,2.384-0.834,2.384-2.5v-7.01h-1.967v-2.502h4.508
		V188.307z"/>
	<path fill="#485D72" d="M45.244,170.303h5.002c2.997,0.008,4.495,1.477,4.495,4.402v3.569c0,1.815-1.081,3.075-3.244,3.778
		l4.286,10.813h-2.814l-3.544-10.514l-1.641,0.078v10.436h-2.541L45.244,170.303L45.244,170.303z M47.784,172.49v7.999h1.563
		c0.625,0,1.082-0.043,1.368-0.13c0.99-0.365,1.485-1.061,1.485-2.085v-3.569c0-1.477-0.786-2.215-2.358-2.215H47.784z"/>
	<path fill="#485D72" d="M67.338,185.114l1.186,7.752h-2.58l-0.755-5.042H60.03l-0.769,5.042h-2.567l1.16-7.699l2.658-14.864h4.182
		L67.338,185.114z M64.851,185.635l-2.254-13.418l-2.267,13.418H64.851z"/>
	<path fill="#485D72" d="M70.738,170.303h5.002c2.997,0.008,4.495,1.477,4.495,4.402v3.569c0,2.163-1.085,3.557-3.257,4.183
		c-0.53,0.147-1.325,0.223-2.384,0.223h-1.315v10.188h-2.541V170.303z M73.279,172.49v7.999h1.563c0.625,0,1.082-0.043,1.368-0.13
		c0.99-0.365,1.485-1.061,1.485-2.085v-3.569c0-1.477-0.786-2.215-2.358-2.215H73.279z"/>
	<path fill="#485D72" d="M82.973,170.303h2.541v10.188h4.755v-10.188h2.541v22.563h-2.541v-10.188h-4.755v10.188h-2.541V170.303z"/>
	<path fill="#485D72" d="M96.261,170.303h2.541v22.563h-2.541V170.303z"/>
	<path fill="#485D72" d="M111.83,188.905c0,2.928-1.642,4.396-4.925,4.403c-3.274,0-4.912-1.467-4.912-4.403v-14.539
		c0-2.927,1.637-4.392,4.912-4.392c3.283,0,4.925,1.465,4.925,4.392v2.604h-2.541v-2.604c0-1.459-0.791-2.192-2.371-2.202h-0.026
		c-1.572,0-2.358,0.734-2.358,2.202v14.539c0,1.469,0.79,2.202,2.371,2.202c1.589,0,2.384-0.733,2.384-2.202v-2.604h2.541V188.905z"
		/>
	<path fill="#485D72" d="M120.077,167.227h5.328c3.006,0.009,4.508,1.677,4.508,5.003v15.646c0,3.318-1.588,4.981-4.768,4.99h-5.068
		V167.227L120.077,167.227z M122.617,169.702v20.688h2.385c1.58,0,2.371-0.838,2.371-2.516v-15.646c0-1.685-0.791-2.527-2.371-2.527
		H122.617z"/>
	<path fill="#485D72" d="M140.922,180.489v2.188h-5.342v8h6.199v2.188h-8.74v-22.564h8.74v2.188h-6.199v7.999L140.922,180.489
		L140.922,180.489z"/>
	<path fill="#485D72" d="M144.256,174.366c0-2.927,1.637-4.392,4.912-4.392c3.283,0,4.924,1.465,4.924,4.392v2.604h-2.539v-2.604
		c0-1.459-0.791-2.192-2.371-2.202h-0.027c-1.57,0-2.357,0.734-2.357,2.202v2.163c0,1.25,1.313,2.705,3.936,4.363
		c2.24,1.408,3.361,3.08,3.361,5.017v2.996c0,2.937-1.639,4.403-4.912,4.403c-3.283-0.008-4.926-1.477-4.926-4.403v-2.604h2.541
		v2.604c0,1.469,0.795,2.202,2.385,2.202c1.58,0,2.371-0.733,2.371-2.202v-2.709c0-1.347-1.313-2.845-3.936-4.495
		c-2.24-1.416-3.361-3.118-3.361-5.107V174.366L144.256,174.366z"/>
	<path fill="#485D72" d="M157.285,170.303h2.541v22.563h-2.541V170.303z"/>
	<path fill="#485D72" d="M172.854,188.905c0,2.928-1.643,4.396-4.926,4.403c-3.273,0-4.91-1.467-4.91-4.403v-14.539
		c0-2.927,1.637-4.392,4.91-4.392c3.283,0,4.926,1.465,4.926,4.392v2.604h-2.541v-2.604c0-1.459-0.791-2.192-2.371-2.202h-0.025
		c-1.572,0-2.357,0.734-2.357,2.202v14.539c0,1.469,0.789,2.202,2.371,2.202c1.588,0,2.383-0.733,2.383-2.202v-6.162h-1.967v-2.201
		h4.508V188.905L172.854,188.905z"/>
	<path fill="#485D72" d="M175.98,170.303h2.67l4.912,18.316v-18.266l2.254-0.039v22.552h-2.672l-4.768-17.927v17.927h-2.396V170.303
		z"/>
	<path fill="#485D72" d="M197.086,180.489v2.188h-5.342v8h6.199v2.188h-8.74v-22.564h8.74v2.188h-6.199v7.999L197.086,180.489
		L197.086,180.489z"/>
	<path fill="#485D72" d="M200.682,170.303h5.002c2.996,0.008,4.494,1.477,4.494,4.402v3.569c0,1.815-1.08,3.075-3.244,3.778
		l4.287,10.813h-2.814l-3.543-10.514l-1.643,0.078v10.436h-2.539V170.303L200.682,170.303z M203.221,172.49v7.999h1.564
		c0.625,0,1.08-0.043,1.365-0.13c0.99-0.365,1.486-1.061,1.486-2.085v-3.569c0-1.477-0.787-2.215-2.359-2.215H203.221z"/>
</g>
</svg>
