<?xml version="1.0" encoding="utf-8"?>
<!-- Generator: Adobe Illustrator 16.0.3, SVG Export Plug-In . SVG Version: 6.00 Build 0)  -->
<!DOCTYPE svg PUBLIC "-//W3C//DTD SVG 1.1//EN" "http://www.w3.org/Graphics/SVG/1.1/DTD/svg11.dtd">
<svg version="1.1" xmlns="http://www.w3.org/2000/svg" xmlns:xlink="http://www.w3.org/1999/xlink" x="0px" y="0px" width="864px"
	 height="432px" viewBox="0 0 864 432" enable-background="new 0 0 864 432" xml:space="preserve">
<g id="vari01">
	<g id="logotype">
	</g>
	<g id="logo">
	</g>
</g>
<g id="vari02">
</g>
<g id="vari03">
</g>
<g id="vari04">
	<g id="logo_3_">
	</g>
	<g id="logotype_3_">
	</g>
</g>
<g id="vari05">
	<g id="logo_copy">
	</g>
</g>
<g id="vari06">
	<g id="logo_4_">
	</g>
</g>
<g id="vari07">
</g>
<g id="vari08">
	<g id="logo_6_">
		<g id="jar_7_">
			<path fill="#35432D" d="M219.911,92.557c0.516-1.857,0.789-3.888,0.789-6.064c0-0.541-0.036-1.079-0.106-1.61V63.716
				c0-3.246-1.29-6.359-3.586-8.656c-19.287-19.287-72.94-20.786-88.926-20.786s-69.64,1.499-88.927,20.786
				c-2.295,2.297-3.585,5.41-3.585,8.656V86.65c0,0.816,0.081,1.619,0.235,2.396c0.129,1.229,0.351,2.401,0.659,3.511
				c-11.629,15.618-12.258,45.139-12.258,51.271v194.943c0,22.866,12.339,42.657,34.742,55.726
				c18.481,10.781,43.07,16.718,69.237,16.718s50.757-5.937,69.238-16.718c22.403-13.068,34.741-32.859,34.741-55.726V143.827
				C232.166,137.695,231.539,108.174,219.911,92.557z"/>
			<path id="XMLID_8_" fill="#CBDF7A" d="M219.925,143.827v194.943c0,80.271-183.476,80.271-183.476,0V143.827
				c0,0,0-34.401,11.468-45.869c11.468-11.466,0,0,0-11.466c11.468-22.934,149.075-22.934,160.541,0c0,11.466-11.466,0,0,11.466
				C219.925,109.426,219.925,143.827,219.925,143.827z"/>
			<path fill="#EFEFB4" d="M61.756,110.838c-2.76,6.795,0.575,21.917,0.637,17.414c0.265-19.094,18.687-18.899,17.625-25.271
				C78.865,96.066,64.517,104.043,61.756,110.838z"/>
			<path fill="#EFEFB4" d="M67.248,117.517c-1.932,4.758,0.401,15.343,0.446,12.189c0.185-13.365,13.081-13.229,12.338-17.689
				C79.224,107.177,69.18,112.761,67.248,117.517z"/>
			<path fill="#809748" d="M196.883,373.333c0.164-0.164,0.319-0.334,0.478-0.5c-11.614-22.882-126.12-22.863-137.579,0.052
				c0,0-2.106,2.113-3.766,5.052c34.597,27.723,106.066,28.247,142.07,1.583C194.685,378.608,193.458,376.758,196.883,373.333z"/>
			<path fill="#35432D" d="M196.546,373.529c0,0-0.092-0.111-0.267-0.329c-0.187-0.199-0.414-0.588-0.785-0.914
				c-0.651-0.714-1.835-1.703-3.449-2.676c-1.618-0.987-3.725-1.974-6.232-2.907c-2.511-0.93-5.439-1.775-8.672-2.585
				c-3.237-0.802-6.789-1.538-10.58-2.225c-3.789-0.677-7.818-1.307-12.013-1.786c-4.195-0.491-8.554-0.854-12.991-1.102
				c-4.438-0.256-8.954-0.441-13.475-0.484c-4.521-0.053-9.043,0.057-13.489,0.201c-4.45,0.158-8.821,0.436-13.038,0.844
				c-4.215,0.406-8.282,0.876-12.107,1.499c-1.912,0.31-3.766,0.647-5.547,1.016c-1.782,0.364-3.501,0.738-5.129,1.165
				c-3.266,0.829-6.197,1.792-8.715,2.811c-2.516,1.026-4.587,2.163-6.16,3.264s-2.661,2.158-3.259,2.974
				c-0.344,0.382-0.507,0.731-0.664,0.946c-0.142,0.219-0.216,0.333-0.216,0.333l-0.036,0.057c-0.161,0.248-0.491,0.317-0.739,0.158
				c-0.233-0.15-0.308-0.454-0.184-0.695c0,0,0.069-0.134,0.203-0.391c0.146-0.249,0.305-0.665,0.638-1.115
				c0.587-0.969,1.666-2.233,3.249-3.575c1.587-1.336,3.708-2.688,6.253-3.969c2.544-1.282,5.535-2.438,8.842-3.513
				c3.309-1.075,6.947-2.037,10.833-2.846c3.885-0.812,8.005-1.54,12.289-2.097c4.284-0.563,8.727-0.999,13.248-1.317
				c4.521-0.335,9.125-0.468,13.729-0.527c4.604-0.037,9.212,0.022,13.742,0.244c4.533,0.229,8.99,0.577,13.294,1.058
				c4.305,0.485,8.464,1.057,12.383,1.812c3.923,0.742,7.594,1.703,10.932,2.801c3.339,1.095,6.335,2.368,8.883,3.738
				c2.552,1.375,4.643,2.879,6.184,4.328c0.779,0.713,1.398,1.443,1.905,2.09c0.241,0.335,0.464,0.644,0.667,0.928
				c0.19,0.306,0.345,0.602,0.485,0.853c0.145,0.255,0.258,0.475,0.324,0.666c0.076,0.191,0.14,0.353,0.192,0.481
				c0.101,0.261,0.15,0.396,0.15,0.396c0.079,0.205-0.021,0.435-0.228,0.514C196.832,373.713,196.651,373.658,196.546,373.529z"/>
			<path fill="#809748" d="M207.346,91.017c-11.74-14.522-105.291-18.522-140.231-2.801c24.743-10.617,120.316-7.53,130.274,3.723
				c0,0,11.467,11.468,11.467,34.402c0,11.467,0,217.876,0,217.876s-0.5,17.146-11.495,28.616c-0.158,0.166-0.313,0.336-0.478,0.5
				c-3.425,3.425-2.198,5.275,1.203,6.187c13.277-9.833,21.732-23.36,21.732-40.59V143.987c0,0,0-34.402-11.466-45.869
				C199.064,88.83,204.822,94.585,207.346,91.017z"/>
			<path fill="#809748" d="M50.338,92.158c17.623-20.513,83.233-20.213,132.716-12.537c-23.972-7.614-54.364-10.785-80.844-9.22
				c-7.99,0.605-15.604,1.502-22.486,2.689c-13.602,2.598-24.791,6.854-31.492,12.827c-0.153,0.241-0.297,0.486-0.42,0.732
				C47.812,90.45,49.07,91.728,50.338,92.158z"/>
			<path fill="#55B948" d="M208.353,63.716V86.65c-11.469-22.935-149.074-22.935-160.541,0V63.716
				C70.746,40.781,185.418,40.781,208.353,63.716z"/>
			<path fill="#346F36" d="M185.922,75.028c11.289,2.726,19.451,6.452,22.188,11.177h0.243V63.716
				c-4.458-4.456-12.392-8.044-22.431-10.769V75.028z"/>
			<path fill="#346F36" d="M183.054,52.206c-3.604-0.886-7.44-1.671-11.468-2.35v22.463c4.052,0.592,7.896,1.276,11.468,2.052
				V52.206z"/>
			<path fill="#346F36" d="M168.72,49.395c-1.877-0.289-3.79-0.553-5.732-0.798V71.23c1.947,0.211,3.86,0.44,5.732,0.688V49.395z"/>
			<path fill="#346F36" d="M157.253,70.67c0.962,0.084,1.918,0.172,2.866,0.266V48.253c-0.948-0.107-1.904-0.21-2.866-0.307V70.67z"
				/>
			<path fill="#EFEFB4" d="M94.184,71.122c1.882-0.197,3.797-0.376,5.733-0.537v-22.74c-1.937,0.188-3.847,0.397-5.733,0.627V71.122
				z"/>
			<path fill="#EFEFB4" d="M105.65,47.347c-0.959,0.073-1.915,0.151-2.866,0.232v22.78c0.951-0.072,1.905-0.139,2.866-0.201V47.347z
				"/>
			<path fill="#35432D" d="M209.468,88.276c-0.467,0-0.916-0.258-1.141-0.705c-4.879-9.76-37.974-16.577-80.479-16.577
				c-42.089,0-74.858,6.752-79.693,16.418c-0.314,0.629-1.08,0.884-1.709,0.569s-0.885-1.08-0.57-1.708
				c6.578-13.157,48.271-17.827,81.973-17.827c36.719,0,76.548,5.562,82.759,17.985c0.314,0.629,0.059,1.395-0.567,1.709
				C209.854,88.232,209.66,88.276,209.468,88.276z"/>
		</g>
		<g id="foot_7_">
			<g id="bone_7_">
				<path fill="#FFFFFF" d="M122.392,132.306c0,0-6.462-15.509-10.639-18.701c0,0,6.574-3.567,5.949-6.62
					c0,0,7.453,2.206,10.889-0.048c0,0,0.804,20.113,5.979,22.229"/>
				<path fill="#35432D" d="M134.306,127.436c-0.256-0.257-0.493-0.602-0.719-0.96c-0.222-0.368-0.427-0.763-0.611-1.178
					c-0.185-0.414-0.363-0.842-0.516-1.283c-0.316-0.879-0.586-1.79-0.82-2.72c-0.238-0.928-0.445-1.867-0.627-2.819
					c-0.37-1.898-0.652-3.826-0.882-5.762c-0.116-0.969-0.217-1.939-0.304-2.91c-0.089-0.969-0.165-1.952-0.219-2.909l-0.09-1.593
					l-1.484,0.784l-0.476,0.278c-0.163,0.089-0.359,0.147-0.536,0.226c-0.172,0.087-0.385,0.118-0.576,0.177
					c-0.196,0.061-0.399,0.105-0.61,0.133c-0.21,0.029-0.414,0.083-0.631,0.094l-0.647,0.059c-0.438,0.013-0.876,0.036-1.322,0.016
					c-0.442-0.002-0.891-0.042-1.339-0.072c-0.448-0.046-0.896-0.093-1.344-0.158c-0.447-0.064-0.896-0.139-1.341-0.224
					c-0.441-0.085-0.896-0.181-1.315-0.285l-1.016-0.258l0.147,1.053l0.03,0.192l0.002,0.202c-0.013,0.137-0.036,0.279-0.076,0.425
					c-0.085,0.292-0.234,0.592-0.42,0.882c-0.368,0.583-0.876,1.124-1.417,1.63c-0.549,0.505-1.142,0.975-1.76,1.416
					c-0.307,0.22-0.622,0.435-0.942,0.642c-0.315,0.203-0.646,0.409-0.964,0.589l-0.002,0.002l-0.637,0.237l0.563,0.72
					c0.266,0.34,0.551,0.608,0.784,0.977c0.237,0.366,0.499,0.686,0.71,1.075c0.213,0.385,0.45,0.742,0.658,1.131l0.614,1.165
					c0.396,0.792,0.798,1.575,1.162,2.387c0.382,0.798,0.743,1.613,1.106,2.423l1.06,2.454c0.354,0.816,0.688,1.646,1.026,2.469
					l1.013,2.476l0.49,1.243l0.24,0.621c0.063,0.211,0.252,0.362,0.947,0.318l2.349-0.985c0.521-0.459,0.53-0.723,0.418-0.926
					l-0.299-0.62l-0.6-1.232l-1.233-2.447c-0.867-1.61-1.74-3.22-2.692-4.787c-0.488-0.781-0.958-1.565-1.476-2.332
					c-0.504-0.769-1.054-1.52-1.595-2.27l-0.867-1.096c-0.295-0.36-0.617-0.714-0.93-1.062c-0.302-0.352-0.685-0.672-1.02-1.002
					c-0.141-0.135-0.307-0.257-0.472-0.379c0.088-0.054,0.182-0.103,0.27-0.156c0.341-0.208,0.676-0.425,1.006-0.649
					c0.66-0.448,1.301-0.93,1.912-1.465c0.607-0.541,1.193-1.125,1.678-1.847c0.241-0.36,0.458-0.756,0.603-1.209
					c0.044-0.144,0.064-0.299,0.092-0.452c0.177,0.048,0.356,0.104,0.536,0.15c0.461,0.117,0.926,0.223,1.394,0.318
					c0.467,0.097,0.939,0.176,1.414,0.251c0.477,0.063,0.953,0.133,1.439,0.166c0.481,0.05,0.973,0.054,1.463,0.069l0.745-0.021
					c0.248-0.002,0.502-0.047,0.753-0.068c0.251-0.019,0.505-0.059,0.761-0.118c0.257-0.059,0.51-0.089,0.766-0.186
					c0.009-0.002,0.016-0.005,0.024-0.008c0.026,0.51,0.046,1.023,0.081,1.533c0.068,0.992,0.149,1.984,0.245,2.976
					c0.192,1.983,0.438,3.966,0.778,5.942c0.166,0.99,0.363,1.979,0.593,2.966c0.226,0.987,0.491,1.974,0.822,2.957
					c0.159,0.492,0.351,0.981,0.556,1.472c0.206,0.488,0.444,0.977,0.72,1.459c0.283,0.48,0.597,0.964,1.023,1.418
					c0.39,0.463,0.961,0.88,1.614,1.188l0.963-2.359C134.826,127.862,134.557,127.729,134.306,127.436z"/>
			</g>
			<path fill="#81C341" d="M95.178,133.831c11.255,21.802,20.335,50.214,19.705,58.157c-0.632,7.943,0.148,36.664-11.654,53.096
				c-11.806,16.431-40.207,47.045-43.434,50.569c-3.664,4.001-24.993,35.676,4.661,43.539c0,0,11.608,10.127,19.097,0.751
				c0,0,8.754,12.459,19.733,0.776c0,0,8.562,6.608,16.093-1.171c6.09-6.292,2.396-6.27,4.206-12.375
				c0.349,7.347,24.604,14.677,20.391-7.803c0,0,13.958,9.795,20.223-11.636c6.262-21.432,21.306-31.039,33.365-45.866
				c12.062-14.826,14.728-25.879-3.149-49.536c-17.876-23.655-37.104-69.68-39.764-91.143c0,0-5.039,6.497-7.222-2.834
				c0,0-0.295,15.607-10.46,6.601c0,0-3.305,11.028-11.916,3.038c0,0-5.643,13.804-13.81,2.643
				C111.243,130.638,107.713,147.395,95.178,133.831z"/>
			<path fill="#55B948" d="M119.379,339.549c6.09-6.292,2.396-6.27,4.206-12.375c3.176-12.147,17.346,4.718,4.892,5.307
				l-4.892-5.307c0.342,7.207,23.682,14.394,20.599-6.55c-0.083-0.102-0.164-0.192-0.248-0.298c0,0-0.641,1.053-1.126-2.79
				c-0.485-3.845,3.031,5.416,11.28-16.203c5.33-13.978,13.211-24.749,13.594-25.446c3.262-5.929,15.06-10.71,19.104-22.709
				c5.763-17.086,5.369-36.394-18.777-70.521c-11.023-15.575-18.709-56.181-18.113-58.639c0.064-0.276,0.237-0.521,0.487-0.741
				c-0.674-0.222-1.339-0.809-1.927-1.949c-0.526,0.345-1.033,0.653-1.519,0.911c-0.551,2.481-1.724,5.269-4.197,5.495
				c1.986,15.501,6.966,53.645-3.398,64.06c-9.267,9.311-16.289,18.404-8.951,28.976c3.211,4.624,13.265,31.443-7.786,51.973
				s-48.457,16.263-48.734,8.375c0,0-0.574,0.264-1.557,0.796c-6.312,7.021-11.279,12.386-12.52,13.741
				c-1.913,2.088-8.638,11.72-10.411,21.568c12.461-8.838,15.048,19.842,1.637,12.989l-1.64-12.978
				c-1.619,9.011,0.909,18.202,15.075,21.959c0,0,11.608,10.127,19.097,0.751l-1.358-7.247c12.569-10.987,15.141,13.458,1.358,7.247
				c0,0,8.754,12.459,19.733,0.776l-3.13-9.354c9.686-11.428,17.8,9.228,3.13,9.354C103.286,340.72,111.848,347.328,119.379,339.549
				z M64.068,337.784l-0.239-10.747C77.328,319.933,80.29,343.337,64.068,337.784z"/>
			<path fill="#346F36" d="M149.896,124.018c-0.596,2.458,7.09,43.063,18.113,58.639c24.146,34.128,24.54,53.436,18.777,70.521
				c-4.044,11.999-15.842,16.78-19.104,22.709c-0.383,0.697-8.264,11.469-13.594,25.446c-8.249,21.619-11.766,12.358-11.28,16.203
				c0.485,3.843,1.126,2.79,1.126,2.79c0.084,0.105,0.165,0.196,0.248,0.298c-0.062-0.408-0.128-0.824-0.208-1.253
				c0,0,13.958,9.795,20.223-11.636c6.262-21.432,21.306-31.039,33.365-45.866c12.062-14.826,14.728-25.879-3.149-49.536
				c-17.709-23.437-36.736-68.813-39.677-90.524c-0.263,0.039-0.522,0.083-0.782,0.133c-0.808,0.769-2.201,1.792-3.571,1.335
				C150.134,123.497,149.961,123.741,149.896,124.018z"/>
			<path fill="#CBDF7A" d="M49.384,317.222c-0.003,0.005-0.003,0.008-0.003,0.012l1.64,12.978
				C64.432,337.063,61.845,308.384,49.384,317.222z"/>
			<path fill="#CBDF7A" d="M63.829,327.037l0.239,10.747C80.29,343.337,77.328,319.933,63.829,327.037z"/>
			<path fill="#CBDF7A" d="M82.194,332.696l1.358,7.247C97.335,346.154,94.764,321.709,82.194,332.696z"/>
			<path fill="#CBDF7A" d="M100.156,331.366l3.13,9.354C117.956,340.594,109.842,319.938,100.156,331.366z"/>
			<path fill="#CBDF7A" d="M123.585,327.174l4.892,5.307C140.931,331.892,126.761,315.026,123.585,327.174z"/>
			<path fill="#35432D" d="M182.772,223.425c0,0,0.029,0.119,0.089,0.344c0.074,0.241,0.187,0.594,0.325,1.043
				c0.145,0.463,0.297,0.993,0.442,1.618c0.153,0.621,0.292,1.322,0.426,2.085c0.519,3.051,0.748,7.136,0.258,11.162
				c-0.112,1.007-0.279,2.007-0.482,2.981c-0.193,0.976-0.457,1.925-0.73,2.831c-0.3,0.902-0.606,1.766-0.971,2.558
				c-0.346,0.798-0.743,1.521-1.127,2.176c-0.204,0.318-0.399,0.623-0.589,0.913c-0.205,0.279-0.399,0.542-0.581,0.788
				c-0.395,0.476-0.738,0.883-1.054,1.19c-0.299,0.324-0.571,0.542-0.741,0.702c-0.175,0.156-0.27,0.238-0.27,0.238
				c-0.111,0.099-0.282,0.089-0.381-0.021c-0.091-0.104-0.089-0.26,0-0.36l0.015-0.016c0,0,0.08-0.089,0.231-0.257
				c0.146-0.171,0.38-0.402,0.626-0.742c0.269-0.322,0.553-0.745,0.869-1.229c0.147-0.251,0.303-0.52,0.463-0.8
				c0.148-0.291,0.299-0.597,0.458-0.917c0.288-0.653,0.585-1.366,0.825-2.148c0.259-0.773,0.455-1.616,0.641-2.484
				c0.161-0.878,0.309-1.786,0.389-2.718c0.088-0.933,0.141-1.882,0.143-2.834c0.041-3.804-0.602-7.582-1.372-10.259
				c-0.196-0.671-0.39-1.274-0.578-1.799c-0.187-0.521-0.376-0.976-0.523-1.317c-0.077-0.165-0.146-0.313-0.206-0.441
				c-0.064-0.139-0.146-0.27-0.201-0.367c-0.119-0.197-0.187-0.304-0.187-0.304c-0.603-0.98-0.299-2.264,0.682-2.869
				c0.979-0.604,2.266-0.298,2.869,0.682C182.638,223.032,182.721,223.233,182.772,223.425z"/>
			<path fill="#35432D" d="M195.684,211.373c-18.198-24.084-36.906-69.826-39.454-90.379c-0.079-0.641-0.535-1.169-1.157-1.34
				c-0.621-0.168-1.286,0.051-1.682,0.56c-0.43,0.554-1.544,1.584-2.305,1.585c-0.561,0-1.448-0.997-2.106-3.806
				c-0.184-0.782-0.917-1.305-1.717-1.221c-0.799,0.085-1.409,0.749-1.426,1.553c-0.036,1.654-0.715,7.839-3.417,7.839
				c-0.77,0-2.159-0.416-4.396-2.398c-0.408-0.361-0.972-0.489-1.492-0.341c-0.522,0.148-0.934,0.555-1.092,1.075
				c-0.012,0.048-1.524,4.807-4.604,4.807c-1.346,0-2.927-0.835-4.7-2.479c-0.383-0.357-0.917-0.498-1.425-0.389
				c-0.512,0.112-0.933,0.469-1.133,0.953c-0.637,1.559-3.105,6.01-5.985,6.01c-1.944,0-3.829-2.015-5.066-3.705
				c-0.37-0.507-1.004-0.751-1.619-0.617c-0.616,0.135-1.094,0.615-1.224,1.229c-0.014,0.073-1.639,7.229-5.783,7.229
				c-2.047,0-4.66-1.655-7.553-4.787c-0.543-0.585-1.433-0.682-2.085-0.224c-0.651,0.457-0.865,1.326-0.501,2.035
				c11.242,21.775,20.138,49.707,19.532,57.3c-0.093,1.187-0.155,2.754-0.231,4.741c-0.428,11.002-1.317,33.896-11.129,47.553
				c-5.012,6.976-16.434,21.211-42.387,49.411l-0.928,1.01c-2.368,2.587-14.369,19.636-10.496,32.856
				c1.89,6.442,7.129,10.884,15.582,13.204c1.273,1.034,6.386,4.879,12,4.879c2.993,0,5.608-1.061,7.798-3.156
				c1.792,1.908,5.393,4.951,10.162,4.951c3.387,0,6.69-1.53,9.841-4.548c1.497,0.875,4.267,2.168,7.564,2.168
				c3.525,0,6.707-1.439,9.453-4.274c4.065-4.201,4.258-6.035,4.134-8.586c2.694,2.4,6.979,3.979,10.7,3.979
				c3.437,0,6.252-1.205,8.144-3.482c2.027-2.443,2.854-5.933,2.47-10.4c1.396,0.544,3.201,1.029,5.197,1.029
				c4.639,0,10.932-2.604,14.561-15.016c4.371-14.96,13.052-23.933,22.24-33.432c3.617-3.739,7.359-7.606,10.83-11.876
				C211.374,247.415,214.117,235.766,195.684,211.373z M51.182,326.54c-0.873-2.975-0.781-6.268-0.129-9.559
				c1.812,0.006,4.497,0.158,6.265,1.992c1.151,1.193,1.457,3.328,1.376,5.264c-0.192,4.708-2.689,6.399-5.287,6.665
				C52.398,329.594,51.65,328.143,51.182,326.54z M65.054,336.896c-0.272-1.255-0.516-3.118-0.516-5.386
				c0.002-1.404,0.092-2.964,0.31-4.606c1.946-0.05,4.758-0.298,7.627,1.764c1.097,0.787,1.377,2.429,1.377,3.847
				c-0.002,2.305-1.319,4.76-8.592,5.254C65.194,337.518,65.123,337.233,65.054,336.896z M84.599,337.757
				c-0.278-1.128-0.598-2.778-0.794-4.795c-0.012-0.129-0.019-0.271-0.03-0.4c3.805-2.036,6.058-1.362,6.823-0.232
				c0.56,0.826,0.938,1.925,0.938,3.085c0,1.858-0.971,4.439-5.062,5.401c-0.74-0.701-1.254-1.318-1.48-1.606L84.599,337.757z
				 M104.026,338.916l-2.426-7.256c1.506-1.615,3.021-2.465,4.411-2.465c2.396,0,4.017,2.585,4.026,5.001
				c0.014,2.975-2.106,4.868-5.72,5.197C104.234,339.264,104.137,339.104,104.026,338.916z M128.995,331.164l-3.837-4.161
				c-0.014-0.124-0.04-0.239-0.079-0.354c0.471-1.321,1.271-2.589,2.62-2.589c1.985,0,4.49,2.613,4.538,4.74
				C132.276,330.44,130.611,331.004,128.995,331.164z M98.829,331.407c0.134,1.342,0.336,2.609,0.601,3.748
				c0.222,0.995,0.49,1.897,0.768,2.692c0.27,0.795,0.57,1.475,0.828,2.032c0.101,0.209,0.192,0.394,0.282,0.566
				c-2.538,2.434-5.104,3.68-7.643,3.68c-2.14,0-4.017-0.88-5.483-1.905c3.64-0.712,5.901-3.643,5.901-6.806
				c0-1.724-0.363-3.486-1.443-4.609c-2.611-2.713-5.005-2.221-8.995-0.677c-0.028-1.293,0.002-2.66,0.137-4.079
				c0.251-2.501,0.788-5.186,2.002-7.493c0.595-1.156,1.385-2.186,2.34-2.97c0.916-0.782,2.214-1.24,3.366-2.041
				c1.152-0.754,2.204-1.565,3.051-2.526c0.852-0.945,1.499-1.984,1.931-3.001c0.443-1.017,0.673-2.003,0.806-2.87
				c0.147-0.868,0.19-1.623,0.23-2.243c0.054-1.237,0.053-1.938,0.053-1.938v-0.011c-0.001-0.188-0.148-0.346-0.337-0.354
				c-0.199-0.011-0.368,0.14-0.379,0.337c0,0-0.037,0.699-0.156,1.901c-0.073,0.6-0.156,1.328-0.338,2.134
				c-0.171,0.808-0.433,1.7-0.881,2.585c-0.438,0.891-1.058,1.771-1.861,2.572c-0.79,0.81-1.81,1.507-2.883,2.126
				c-0.275,0.149-0.533,0.306-0.827,0.452c-0.3,0.144-0.603,0.288-0.908,0.432l-0.45,0.217l-0.502,0.254
				c-0.328,0.186-0.653,0.386-0.959,0.608c-1.229,0.897-2.235,2.088-2.993,3.377c-1.542,2.588-2.267,5.474-2.688,8.153
				c-0.408,2.693-0.47,5.23-0.385,7.4c0.091,2.171,0.337,3.979,0.574,5.246c0.077,0.426,0.16,0.815,0.228,1.119
				c-1.712,1.885-3.716,2.814-6.108,2.814c-2.735,0-5.427-1.216-7.362-2.36c6.288-1.109,8.056-4.293,8.056-7.455
				c0-2.016-0.699-4.041-1.984-5.5c-2.349-2.67-6.595-2.693-9.126-2.662c0.039-0.18,0.073-0.357,0.114-0.538
				c0.315-1.384,0.743-2.785,1.306-4.146c0.557-1.361,1.276-2.679,2.198-3.785c0.446-0.555,0.997-1.054,1.526-1.418
				c0.212-0.18,0.664-0.385,0.928-0.538c0.361-0.192,0.72-0.386,1.078-0.577c1.385-0.845,2.582-1.89,3.613-2.999
				c1.045-1.103,1.862-2.318,2.578-3.495c0.714-1.181,1.235-2.377,1.678-3.492c0.407-1.129,0.715-2.189,0.898-3.15
				c0.195-0.96,0.277-1.807,0.311-2.52c0.006-0.36,0.011-0.681,0.015-0.96c-0.009-0.271-0.033-0.49-0.047-0.675
				c-0.029-0.364-0.044-0.56-0.044-0.56c-0.021-0.243-0.231-0.432-0.479-0.418c-0.252,0.013-0.445,0.227-0.432,0.48
				c0,0,0.01,0.193,0.029,0.559c0.006,0.182,0.026,0.411,0.026,0.669c-0.011,0.25-0.026,0.537-0.041,0.859
				c-0.05,0.646-0.15,1.45-0.361,2.347c-0.199,0.9-0.521,1.895-0.937,2.953c-0.45,1.043-0.976,2.162-1.683,3.258
				c-0.706,1.089-1.51,2.209-2.509,3.201c-0.985,1-2.111,1.922-3.371,2.645c-0.323,0.16-0.648,0.321-0.974,0.483
				c-0.413,0.218-0.684,0.312-1.101,0.594c-0.764,0.489-1.386,1.043-1.941,1.682c-1.109,1.261-1.937,2.697-2.587,4.151
				c-0.651,1.457-1.149,2.941-1.526,4.397c-0.756,2.914-1.079,5.71-1.15,8.119c-0.064,2.234,0.101,4.134,0.337,5.53
				c-3.273-1.103-5.162-2.075-7.126-3.941c3.803-0.032,5.627-3.881,5.627-8.83c0.001-2.4-0.641-4.809-1.76-6.609
				c-1.157-1.861-5.41-3.401-7.766-3.395c2.274-7.92,7.226-15.294,9.253-17.505l0.923-1.005
				c26.059-28.317,37.564-42.662,42.627-49.712c10.369-14.432,11.286-37.972,11.725-49.286c0.073-1.872,0.137-3.49,0.227-4.611
				c0.641-8.063-7.251-32.5-16.659-52.476c1.411,0.725,2.767,1.083,4.089,1.083c4.421,0,6.828-3.994,7.99-6.876
				c1.846,1.822,3.758,2.742,5.705,2.741c3.902-0.001,6.639-3.723,7.984-6.09c1.813,1.325,3.573,1.994,5.254,1.994h0.002
				c3.571-0.001,5.705-2.891,6.78-4.979c1.74,1.232,3.324,1.836,4.804,1.836c3.124,0,4.88-2.641,5.783-5.619
				c0.813,0.834,1.775,1.253,2.883,1.253c0.886,0,1.71-0.301,2.416-0.709c3.82,22.07,21.972,65.636,39.641,89.021
				c17.259,22.836,14.929,33.131,3.185,47.569c-3.386,4.163-7.077,7.978-10.646,11.67c-9.055,9.359-18.417,19.039-23.01,34.754
				c-2.47,8.442-6.339,12.725-11.503,12.725c-3.429,0-6.254-1.93-6.278-1.947c-0.529-0.372-1.233-0.385-1.778-0.033
				c-0.544,0.35-0.823,0.995-0.702,1.632c0.923,4.926,0.453,8.686-1.36,10.871c-1.599,1.926-3.979,2.331-5.691,2.331
				c-0.874,0-1.747-0.106-2.597-0.284c1.872-1.239,2.042-3.103,2.025-3.843c-0.084-3.512-3.726-7.227-7.087-7.227
				c-1.025,0-2.623,0.339-3.909,2.105c-0.023-0.092-0.048-0.178-0.069-0.272c-0.143-0.517-0.231-1.073-0.325-1.663
				c-0.075-0.586-0.127-1.202-0.093-1.817c0.017-0.62,0.146-1.223,0.35-1.802c0.208-0.581,0.558-1.111,0.994-1.612
				c0.439-0.509,0.96-0.938,1.537-1.451c0.289-0.277,0.593-0.529,0.854-0.822c0.246-0.306,0.507-0.596,0.729-0.901
				c0.203-0.32,0.401-0.637,0.595-0.945c0.155-0.325,0.309-0.644,0.454-0.955c0.149-0.309,0.231-0.629,0.342-0.928
				c0.053-0.15,0.104-0.298,0.153-0.443c0.037-0.147,0.072-0.291,0.107-0.434c0.067-0.283,0.136-0.555,0.199-0.813
				c0.044-0.262,0.088-0.509,0.129-0.741c0.081-0.469,0.145-0.871,0.171-1.193c0.07-0.649,0.108-1.021,0.108-1.021
				c0.029-0.261-0.15-0.505-0.413-0.552c-0.272-0.046-0.533,0.137-0.581,0.409c0,0-0.063,0.369-0.175,1.014
				c-0.048,0.329-0.134,0.705-0.239,1.129c-0.053,0.213-0.107,0.438-0.164,0.678c-0.073,0.233-0.151,0.48-0.231,0.736
				c-0.042,0.128-0.08,0.26-0.126,0.394c-0.051,0.128-0.106,0.257-0.162,0.389c-0.119,0.259-0.208,0.545-0.356,0.806
				c-0.146,0.26-0.294,0.528-0.447,0.802c-0.182,0.251-0.368,0.507-0.555,0.767c-0.208,0.245-0.442,0.471-0.663,0.715
				c-0.232,0.231-0.51,0.425-0.764,0.644c-0.548,0.431-1.22,0.911-1.8,1.498c-0.584,0.586-1.122,1.291-1.467,2.079
				c-0.343,0.78-0.563,1.601-0.637,2.378c-0.095,0.781-0.079,1.521-0.037,2.215c0.063,0.684,0.129,1.334,0.244,1.909
				c0.096,0.586,0.213,1.108,0.327,1.567c0.103,0.465,0.207,0.863,0.304,1.186c0.006,0.021,0.01,0.034,0.017,0.054
				c-0.015,0.035-0.031,0.068-0.043,0.105c-0.738,2.491-0.655,4.095-0.588,5.38c0.096,1.834,0.148,2.845-3.232,6.338
				c-2.124,2.193-4.536,3.307-7.166,3.307c-1.202,0-2.326-0.23-3.304-0.546c3.496-1.391,4.831-4.371,4.82-7.016
				c-0.016-3.625-2.533-7.538-6.575-7.538c-1.208,0-2.911,0.38-4.839,1.932c-0.01-0.116-0.024-0.227-0.031-0.344
				c-0.132-2.313-0.029-4.824,0.545-7.192c0.294-1.174,0.687-2.328,1.279-3.298c0.14-0.251,0.304-0.474,0.466-0.698
				c0.08-0.111,0.161-0.19,0.239-0.29l0.122-0.143l0.17-0.16l0.307-0.288l0.353-0.314c0.234-0.208,0.468-0.415,0.698-0.62
				c0.472-0.395,0.9-0.835,1.32-1.267c0.209-0.214,0.417-0.427,0.622-0.635c0.197-0.219,0.377-0.455,0.563-0.678
				c0.367-0.449,0.732-0.873,1.008-1.358c0.282-0.472,0.604-0.896,0.79-1.379c0.197-0.471,0.441-0.902,0.567-1.35
				c0.13-0.443,0.251-0.865,0.366-1.264c0.16-0.806,0.266-1.531,0.331-2.102c0.061-1.128,0.095-1.771,0.095-1.771
				c0.013-0.258-0.177-0.488-0.437-0.515c-0.269-0.028-0.511,0.166-0.538,0.435c0,0-0.069,0.641-0.188,1.763
				c-0.095,0.543-0.228,1.172-0.408,1.896c-0.123,0.352-0.253,0.727-0.391,1.121c-0.133,0.396-0.379,0.765-0.573,1.175
				c-0.18,0.42-0.498,0.787-0.772,1.193c-0.26,0.417-0.621,0.789-0.977,1.18c-0.182,0.195-0.352,0.399-0.546,0.592
				c-0.203,0.187-0.409,0.374-0.617,0.563c-0.411,0.384-0.835,0.771-1.311,1.131c-0.232,0.184-0.464,0.369-0.7,0.558l-0.352,0.281
				l-0.392,0.326l-0.178,0.151l-0.198,0.199c-0.129,0.136-0.275,0.274-0.385,0.411c-0.224,0.273-0.45,0.549-0.638,0.844
				c-0.791,1.165-1.304,2.459-1.706,3.76c-0.78,2.616-1.027,5.308-1.021,7.819c0.005,0.927,0.059,1.821,0.135,2.692L98.829,331.407z
				"/>
		</g>
		<g id="bubbles_7_">
			<g>
				<circle fill="#EFEFB4" cx="86.832" cy="183.039" r="5.096"/>
				<path fill="#809748" d="M89.133,177.789c0,0,0.112,0.054,0.324,0.155c0.19,0.087,0.607,0.326,0.978,0.615
					c0.782,0.586,1.796,1.686,2.271,3.4c0.223,0.851,0.285,1.846,0.081,2.885c-0.021,0.129-0.063,0.254-0.098,0.385l-0.052,0.194
					l-0.028,0.099c-0.012,0.028,0.024-0.046-0.027,0.067l-0.005,0.009l-0.007,0.021l-0.014,0.039
					c-0.082,0.217-0.123,0.391-0.288,0.696c-0.282,0.576-0.595,1.017-1.009,1.475c-0.411,0.445-0.901,0.827-1.439,1.16
					c-0.546,0.315-1.149,0.556-1.786,0.704c-0.638,0.145-1.308,0.182-1.975,0.126c-0.669-0.057-1.319-0.246-1.942-0.492
					l-0.415-0.207c-0.091-0.04-0.263-0.144-0.428-0.245c-0.342-0.199-0.592-0.408-0.848-0.622c-0.496-0.449-0.929-0.962-1.263-1.524
					c-0.327-0.565-0.567-1.169-0.712-1.784c-0.128-0.618-0.186-1.237-0.143-1.841c0.043-0.602,0.165-1.182,0.369-1.712
					c0.088-0.27,0.219-0.517,0.336-0.763l0.069-0.145l0.046-0.069l0.09-0.14c0.065-0.099,0.104-0.169,0.188-0.288
					c0.343-0.486,0.667-0.854,1.045-1.166c0.358-0.328,0.752-0.579,1.135-0.798c1.573-0.829,3.068-0.845,4.032-0.678
					c0.487,0.078,0.86,0.189,1.105,0.284c0.246,0.095,0.378,0.145,0.378,0.145L89.133,177.789z M88.599,178.944
					c0,0-0.103-0.037-0.298-0.106c-0.094-0.039-0.216-0.07-0.36-0.104c-0.144-0.042-0.312-0.073-0.501-0.09
					c-0.378-0.036-0.847-0.048-1.357,0.088c-0.508,0.121-1.06,0.364-1.543,0.765c-0.236,0.208-0.47,0.429-0.662,0.695
					c-0.203,0.254-0.356,0.581-0.459,0.826c-0.03,0.063-0.073,0.195-0.107,0.29l-0.056,0.155l-0.028,0.077
					c-0.024,0.052,0.028-0.061,0.021-0.047l-0.001,0.009l-0.003,0.016l-0.006,0.032c-0.033,0.169-0.082,0.332-0.091,0.506
					c-0.053,0.336-0.018,0.684,0.018,1.019c0.098,0.674,0.394,1.308,0.793,1.837c0.208,0.262,0.447,0.491,0.699,0.698
					c0.138,0.091,0.276,0.201,0.367,0.248c0.048,0.032,0.086,0.065,0.224,0.126l0.168,0.082l0.085,0.04l0.043,0.021l0.021,0.01
					l0.013,0.005c-0.034-0.015,0.086,0.042-0.071-0.031c0.307,0.128,0.623,0.218,0.944,0.274c0.327,0.041,0.656,0.059,0.989,0.03
					c0.657-0.073,1.323-0.292,1.881-0.685c0.136-0.101,0.271-0.204,0.397-0.317c0.129-0.12,0.252-0.236,0.337-0.337
					c0.092-0.067,0.228-0.306,0.345-0.481l0.021-0.036l0.012-0.017l0.005-0.009c-0.048,0.105-0.011,0.025-0.021,0.047l0.03-0.057
					l0.061-0.112c0.039-0.074,0.087-0.146,0.121-0.225c0.285-0.613,0.396-1.283,0.353-1.909c-0.04-0.626-0.241-1.195-0.501-1.647
					c-0.254-0.464-0.583-0.797-0.868-1.048c-0.146-0.127-0.279-0.228-0.395-0.295c-0.112-0.074-0.21-0.142-0.327-0.194
					c-0.209-0.105-0.32-0.162-0.32-0.162L88.599,178.944z"/>
			</g>
			<g>
				<circle fill="#EFEFB4" cx="154.36" cy="250.568" r="5.097"/>
				<path fill="#809748" d="M159.882,250.589c0,0,0.002,0.127,0.004,0.361c0.009,0.216-0.028,0.657-0.11,1.116
					c-0.091,0.474-0.239,1.059-0.55,1.689c-0.304,0.63-0.758,1.32-1.443,1.934c-0.678,0.607-1.601,1.132-2.686,1.353
					c-0.134,0.032-0.271,0.045-0.411,0.065l-0.211,0.03l-0.105,0.014c0.064,0.002-0.1-0.001-0.086-0.001l-0.012,0.001l-0.02,0.002
					l-0.041,0.002c-0.233,0.009-0.4,0.042-0.773,0.01c-0.347-0.016-0.644-0.064-0.941-0.121c-0.3-0.058-0.602-0.144-0.898-0.244
					c-1.188-0.414-2.339-1.189-3.152-2.303c-0.399-0.56-0.713-1.189-0.923-1.858c-0.212-0.669-0.273-1.377-0.275-2.07l0.005-0.113
					v-0.013l0.002-0.022l0.006-0.048l0.009-0.093l0.021-0.187c0.01-0.072,0.01-0.101,0.026-0.211l0.055-0.291
					c0.068-0.411,0.185-0.726,0.302-1.046c0.263-0.639,0.634-1.215,1.066-1.71c0.889-0.981,2.024-1.595,3.13-1.885
					c1.092-0.303,2.218-0.303,3.113-0.131c1.026,0.202,1.807,0.622,2.472,1.12c0.652,0.502,1.131,1.081,1.48,1.633
					c0.356,0.55,0.563,1.09,0.699,1.536c0.132,0.452,0.194,0.82,0.216,1.072c0.021,0.253,0.032,0.388,0.032,0.388V250.589z
					 M159.033,250.568c0,0-0.001-0.114-0.004-0.33c0.004-0.109-0.012-0.241-0.028-0.396c-0.013-0.158-0.046-0.335-0.099-0.531
					c-0.101-0.391-0.268-0.864-0.593-1.328c-0.322-0.464-0.784-0.924-1.381-1.26c-0.583-0.33-1.352-0.527-2.038-0.528
					c-0.81-0.021-1.544,0.223-2.167,0.679c-0.612,0.467-1.023,1.135-1.234,1.792c-0.108,0.329-0.153,0.661-0.198,0.974
					c-0.005,0.161-0.026,0.327-0.013,0.414c0.002,0.05-0.008,0.085-0.003,0.242l0.003,0.188v0.093v0.048v0.024v0.011
					c0.002-0.042-0.003,0.109,0.005-0.09c0.043,0.614,0.225,1.173,0.499,1.708c0.285,0.525,0.683,1.032,1.213,1.375
					c0.131,0.083,0.269,0.165,0.411,0.23c0.148,0.066,0.29,0.128,0.396,0.164c0.07,0.055,0.354,0.085,0.561,0.121l0.041,0.007
					l0.019,0.004l0.012,0.001c0.02,0.001-0.139-0.003-0.067,0l0.059,0.005l0.118,0.012c0.077,0.006,0.157,0.022,0.234,0.022
					c0.625,0.017,1.254-0.074,1.824-0.295c0.564-0.225,1.052-0.575,1.416-0.96c0.373-0.384,0.596-0.812,0.744-1.177
					c0.079-0.184,0.129-0.353,0.155-0.493c0.036-0.139,0.065-0.265,0.074-0.389c0.026-0.233,0.042-0.356,0.042-0.356V250.568z"/>
			</g>
			<g>
				<circle fill="#EFEFB4" cx="133.337" cy="156.92" r="3.983"/>
				<path fill="#809748" d="M138.059,156.994c0,0-0.005,0.098-0.008,0.282c-0.003,0.091-0.005,0.203-0.009,0.337
					c-0.005,0.069,0.003,0.132-0.012,0.221c-0.02,0.096-0.038,0.2-0.061,0.311c-0.048,0.215-0.093,0.475-0.178,0.724
					c-0.097,0.237-0.202,0.493-0.314,0.765c-0.139,0.262-0.326,0.521-0.516,0.806c-0.213,0.26-0.474,0.516-0.749,0.785
					c-0.598,0.46-1.355,0.923-2.267,1.063l-0.339,0.059l-0.174,0.027l-0.087,0.014l-0.187-0.005h-0.031
					c-0.175,0.001-0.349,0.002-0.526,0.005c-0.099-0.005-0.155,0.012-0.289-0.008l-0.422-0.077
					c-0.276-0.063-0.593-0.123-0.843-0.219c-0.982-0.353-1.92-0.998-2.615-1.905c-0.671-0.93-0.997-2.105-0.987-3.257
					c0.019-0.389,0.006-0.113,0.009-0.202l0.003-0.01l0.002-0.018l0.008-0.035l0.013-0.072l0.026-0.145
					c0.016-0.097,0.034-0.192,0.054-0.288l0.033-0.145l0.016-0.072l0.035-0.118c0.05-0.158,0.107-0.314,0.163-0.468
					c0.222-0.667,0.585-1.067,0.917-1.49c0.772-0.776,1.695-1.257,2.597-1.486c0.905-0.191,1.773-0.261,2.537-0.09
					c0.299,0.032,0.725,0.186,1.089,0.319c0.364,0.142,0.639,0.346,0.938,0.507c0.261,0.213,0.518,0.411,0.736,0.624
					c0.198,0.231,0.398,0.448,0.562,0.667c0.142,0.238,0.271,0.462,0.395,0.667c0.104,0.215,0.165,0.429,0.238,0.615
					c0.161,0.373,0.153,0.696,0.199,0.909c0.03,0.214,0.046,0.33,0.046,0.33L138.059,156.994z M136.576,156.92
					c0,0-0.004-0.08-0.012-0.229c-0.021-0.146,0.029-0.38-0.062-0.647c-0.039-0.136-0.063-0.294-0.117-0.458
					c-0.074-0.155-0.156-0.324-0.239-0.506c-0.107-0.169-0.255-0.327-0.388-0.512c-0.162-0.156-0.354-0.3-0.545-0.456
					c-0.228-0.09-0.454-0.263-0.693-0.307c-0.239-0.048-0.426-0.14-0.805-0.12c-0.57-0.059-1.137,0.186-1.584,0.511
					c-0.439,0.379-0.69,0.91-0.813,1.385c-0.029,0.255-0.089,0.511-0.041,0.613c0,0.031-0.001,0.061-0.007,0.087l-0.008,0.023v0.072
					l0.003,0.147c0.002,0.098,0,0.196-0.003,0.295l-0.005,0.146v0.072l-0.002,0.037v0.019v0.011c0.005-0.084-0.011,0.197,0.01-0.185
					c0.071,0.411,0.182,0.771,0.343,1.145c0.202,0.343,0.438,0.708,0.794,0.964c0.079,0.063,0.126,0.072,0.186,0.13l0.091,0.081
					c0.035,0.029,0.161,0.04,0.235,0.06c0.173,0.038,0.346,0.075,0.514,0.111l0.032,0.006l0.017,0.004l0.008,0.002
					c0.036,0.003-0.28-0.013-0.144-0.007h0.039l0.08,0.002l0.163,0.01c0.442,0.046,0.854-0.068,1.26-0.191
					c0.177-0.103,0.367-0.188,0.535-0.295c0.143-0.132,0.302-0.246,0.431-0.376c0.115-0.146,0.222-0.28,0.323-0.407
					c0.074-0.128,0.112-0.24,0.177-0.347c0.028-0.054,0.056-0.105,0.08-0.153c0.022-0.06,0.028-0.141,0.042-0.203
					c0.023-0.13,0.043-0.242,0.06-0.333c0.032-0.181,0.048-0.276,0.048-0.276L136.576,156.92z"/>
			</g>
			<g>
				<circle fill="#EFEFB4" cx="142.894" cy="100.857" r="3.981"/>
				<path fill="#809748" d="M147.402,100.911c0,0,0,0.098,0,0.282c0,0.092,0,0.205,0,0.338c-0.002,0.068,0.008,0.134-0.005,0.219
					c-0.017,0.093-0.037,0.191-0.057,0.294c-0.046,0.204-0.087,0.449-0.165,0.687c-0.095,0.226-0.197,0.471-0.304,0.733
					c-0.137,0.249-0.318,0.497-0.5,0.77c-0.206,0.251-0.457,0.493-0.722,0.749c-0.576,0.439-1.301,0.872-2.169,1.022l-0.329,0.063
					l-0.168,0.03l-0.084,0.013c0.112,0.007-0.162-0.006-0.136-0.004h-0.01h-0.017l-0.031,0.002
					c-0.175,0.004-0.351,0.012-0.527,0.017c-0.1,0.001-0.159,0.021-0.288,0.006l-0.408-0.062c-0.267-0.049-0.574-0.097-0.82-0.18
					c-0.97-0.317-1.874-1.021-2.37-1.977c-0.2-0.508-0.35-1.024-0.344-1.56c-0.063-0.516,0.043-1.021,0.033-1.497
					c0.012-0.188,0.005-0.058,0.007-0.103l0.003-0.009l0.003-0.02l0.007-0.034l0.017-0.071l0.027-0.146l0.059-0.289
					c0.022-0.168,0.117-0.431,0.204-0.671c0.157-0.51,0.42-0.877,0.654-1.268c0.566-0.717,1.266-1.287,2.056-1.618
					c0.797-0.28,1.638-0.425,2.382-0.27c0.309,0.017,0.71,0.166,1.063,0.29c0.355,0.132,0.623,0.33,0.917,0.486
					c0.251,0.211,0.5,0.408,0.708,0.62c0.184,0.235,0.376,0.444,0.523,0.665c0.124,0.234,0.241,0.455,0.349,0.656
					c0.086,0.213,0.145,0.416,0.208,0.597c0.143,0.358,0.143,0.665,0.189,0.868c0.032,0.206,0.05,0.314,0.05,0.314L147.402,100.911z
					 M146.344,100.857c0,0-0.003-0.084-0.009-0.244c-0.021-0.154,0.042-0.404-0.074-0.688c-0.047-0.143-0.073-0.311-0.145-0.476
					c-0.09-0.159-0.187-0.331-0.287-0.514c-0.122-0.172-0.277-0.334-0.423-0.516c-0.174-0.159-0.377-0.302-0.576-0.462
					c-0.234-0.097-0.464-0.273-0.713-0.327c-0.251-0.054-0.461-0.154-0.832-0.149c-0.589-0.073-1.182,0.097-1.74,0.332
					c-0.549,0.278-1.023,0.718-1.354,1.252c-0.124,0.286-0.287,0.577-0.299,0.837c-0.028,0.129-0.073,0.235-0.058,0.461v0.294v0.146
					v0.074v0.037v0.018v0.01c0.003-0.038-0.004,0.101,0.005-0.085c0.099,0.296,0.175,0.588,0.411,0.802
					c0.178,0.232,0.452,0.373,0.612,0.544c0.397,0.293,0.667,0.602,1.038,0.894c0.081,0.074,0.136,0.098,0.205,0.167l0.107,0.098
					c0.042,0.034,0.16,0.05,0.237,0.073c0.172,0.042,0.343,0.084,0.514,0.123l0.031,0.009l0.015,0.002l0.009,0.003
					c0.03,0.001-0.238-0.013-0.123-0.006l0.045,0.001l0.087,0.005l0.177,0.012c0.479,0.058,0.926-0.087,1.354-0.23
					c0.188-0.114,0.388-0.213,0.563-0.333c0.147-0.142,0.313-0.269,0.446-0.41c0.12-0.155,0.231-0.302,0.334-0.436
					c0.077-0.142,0.123-0.27,0.188-0.388c0.028-0.06,0.06-0.116,0.086-0.171c0.024-0.061,0.032-0.141,0.048-0.203
					c0.026-0.131,0.048-0.241,0.067-0.332c0.035-0.18,0.055-0.276,0.055-0.276L146.344,100.857z"/>
			</g>
			<g>
				<circle fill="#EFEFB4" cx="176.659" cy="135.896" r="4.3"/>
				<path fill="#809748" d="M181.276,135.928c0,0-0.005,0.105-0.01,0.305c-0.026,0.207,0.037,0.463-0.065,0.891
					c-0.042,0.205-0.074,0.45-0.147,0.696c-0.086,0.237-0.18,0.495-0.283,0.771c-0.129,0.265-0.3,0.536-0.477,0.836
					c-0.201,0.272-0.453,0.544-0.722,0.828c-0.594,0.485-1.361,0.976-2.291,1.12l-0.347,0.056l-0.18,0.027l-0.089,0.012l-0.2-0.007
					c-0.185-0.009-0.373-0.017-0.564-0.025c-0.103-0.009-0.172,0.003-0.306-0.022l-0.413-0.092
					c-0.271-0.072-0.577-0.137-0.823-0.242c-0.968-0.403-1.825-1.126-2.44-2.037c-0.26-0.485-0.533-0.969-0.641-1.518
					c-0.069-0.267-0.148-0.532-0.151-0.81l-0.023-0.411l-0.011-0.204l-0.004-0.103l-0.002-0.05l-0.003-0.026v-0.013
					c0.003-0.062-0.007,0.119,0.008-0.142l0.109-0.625c0.026-0.115,0.02-0.178,0.075-0.34l0.151-0.425
					c0.182-0.599,0.51-1,0.809-1.417c0.688-0.774,1.535-1.319,2.415-1.593c0.881-0.238,1.757-0.343,2.537-0.163
					c0.342,0.027,0.743,0.193,1.102,0.33c0.356,0.141,0.634,0.361,0.931,0.528c0.253,0.225,0.499,0.438,0.71,0.656
					c0.188,0.242,0.376,0.464,0.529,0.688c0.129,0.237,0.252,0.461,0.364,0.668c0.095,0.213,0.152,0.424,0.218,0.608
					c0.153,0.366,0.142,0.683,0.19,0.891c0.027,0.21,0.045,0.321,0.045,0.321L181.276,135.928z M180.64,135.896
					c0,0-0.004-0.097-0.016-0.279c-0.003-0.092-0.009-0.206-0.015-0.34c0.006-0.136-0.023-0.287-0.079-0.452
					c-0.053-0.163-0.091-0.354-0.165-0.55c-0.1-0.184-0.208-0.382-0.32-0.595c-0.139-0.199-0.325-0.382-0.494-0.59
					c-0.204-0.179-0.445-0.335-0.677-0.509c-0.272-0.107-0.536-0.291-0.83-0.351c-0.296-0.06-0.555-0.16-0.945-0.145
					c-0.661-0.069-1.332,0.166-1.914,0.485c-0.566,0.384-0.987,0.93-1.266,1.508c-0.093,0.313-0.222,0.622-0.222,0.854
					c-0.065,0.15-0.06,0.699-0.071,1.091c0.012-0.253,0.005-0.066,0.008-0.121l0.003,0.008l0.001,0.014l0.007,0.027l0.013,0.055
					l0.021,0.11l0.037,0.217c0.003,0.148,0.073,0.281,0.127,0.414c0.077,0.281,0.264,0.508,0.393,0.756
					c0.354,0.436,0.763,0.808,1.241,1.062c0.108,0.066,0.193,0.077,0.288,0.134l0.14,0.08c0.053,0.027,0.177,0.033,0.263,0.051
					c0.188,0.03,0.373,0.059,0.558,0.088l0.035,0.007l0.018,0.003l0.007,0.001c0.032,0.002-0.239-0.014-0.121-0.006l0.048-0.003h0.1
					l0.193,0.001c0.529,0.044,1.025-0.088,1.519-0.235c0.219-0.113,0.454-0.211,0.662-0.336c0.182-0.151,0.388-0.284,0.548-0.439
					c0.143-0.177,0.277-0.342,0.401-0.495c0.098-0.161,0.16-0.319,0.236-0.463c0.037-0.072,0.069-0.142,0.104-0.206
					c0.025-0.072,0.034-0.154,0.05-0.224c0.026-0.142,0.048-0.262,0.065-0.359c0.035-0.195,0.053-0.299,0.053-0.299L180.64,135.896z
					"/>
			</g>
			<g>
				<circle fill="#EFEFB4" cx="73.453" cy="221.264" r="4.3"/>
				<path fill="#809748" d="M78.069,221.296c0,0-0.002,0.106-0.009,0.304c-0.026,0.208,0.037,0.462-0.065,0.891
					c-0.041,0.205-0.071,0.45-0.144,0.695c-0.088,0.239-0.184,0.497-0.287,0.772c-0.128,0.264-0.299,0.535-0.476,0.833
					c-0.203,0.275-0.454,0.545-0.723,0.831c-0.592,0.485-1.359,0.976-2.29,1.117l-0.348,0.058l-0.178,0.027l-0.089,0.013l-0.2-0.009
					c-0.187-0.009-0.373-0.016-0.564-0.025c-0.104-0.008-0.173,0.003-0.305-0.022l-0.415-0.092c-0.271-0.07-0.576-0.137-0.822-0.241
					c-0.97-0.403-1.827-1.125-2.441-2.036c-0.586-0.941-0.842-2.059-0.835-3.147c0.014-0.26,0.005-0.078,0.008-0.139l0.002-0.01
					l0.004-0.02l0.006-0.039l0.015-0.078l0.028-0.155l0.055-0.313c0.026-0.116,0.019-0.178,0.074-0.339l0.151-0.426
					c0.183-0.599,0.512-1.001,0.811-1.418c0.689-0.773,1.534-1.318,2.414-1.592c0.88-0.238,1.76-0.342,2.536-0.164
					c0.343,0.028,0.746,0.194,1.102,0.33c0.357,0.14,0.635,0.362,0.932,0.528c0.253,0.226,0.5,0.438,0.71,0.657
					c0.187,0.241,0.375,0.463,0.528,0.686c0.132,0.238,0.254,0.462,0.366,0.669c0.096,0.214,0.15,0.425,0.217,0.608
					c0.153,0.366,0.142,0.684,0.189,0.891c0.031,0.211,0.045,0.323,0.045,0.323L78.069,221.296z M77.436,221.264
					c0,0-0.007-0.097-0.016-0.281c-0.003-0.092-0.01-0.206-0.016-0.338c0.005-0.138-0.026-0.287-0.081-0.452
					c-0.05-0.164-0.088-0.355-0.162-0.55c-0.1-0.185-0.208-0.384-0.323-0.597c-0.138-0.197-0.322-0.38-0.493-0.59
					c-0.202-0.178-0.441-0.336-0.676-0.508c-0.271-0.108-0.535-0.292-0.83-0.352c-0.296-0.059-0.555-0.159-0.945-0.145
					c-0.661-0.068-1.333,0.166-1.914,0.486c-0.566,0.384-0.989,0.931-1.267,1.507c-0.09,0.314-0.219,0.623-0.222,0.854
					c-0.016,0.12-0.061,0.207-0.054,0.459l-0.01,0.316l-0.002,0.159l-0.003,0.079l-0.002,0.038v0.021v0.01
					c0.002-0.054-0.006,0.135,0.006-0.118c0.075,0.599,0.288,1.139,0.605,1.606c0.353,0.438,0.761,0.81,1.239,1.062
					c0.108,0.066,0.193,0.079,0.289,0.135l0.138,0.08c0.053,0.026,0.178,0.034,0.262,0.052c0.188,0.028,0.375,0.059,0.559,0.087
					l0.034,0.006l0.019,0.003l0.008,0.001c0.031,0.003-0.237-0.012-0.122-0.006h0.049l0.098-0.001l0.195,0.001
					c0.528,0.042,1.026-0.09,1.518-0.234c0.219-0.113,0.455-0.213,0.664-0.338c0.182-0.151,0.386-0.285,0.547-0.44
					c0.144-0.176,0.278-0.341,0.401-0.493c0.099-0.163,0.159-0.319,0.237-0.463c0.035-0.074,0.071-0.143,0.103-0.208
					c0.025-0.07,0.033-0.155,0.049-0.223c0.026-0.141,0.049-0.262,0.068-0.359c0.032-0.194,0.051-0.299,0.051-0.299L77.436,221.264z
					"/>
			</g>
			<g>
				<circle fill="#EFEFB4" cx="172.837" cy="311.728" r="3.981"/>
				<path fill="#809748" d="M177.506,311.797c0,0,0.004,0.098,0.012,0.283c0.003,0.092,0.01,0.206,0.022,0.341
					c0.004,0.07,0.02,0.132,0.017,0.224c-0.013,0.099-0.021,0.206-0.031,0.317c-0.029,0.224-0.046,0.499-0.101,0.771
					c-0.064,0.254-0.137,0.539-0.228,0.851c-0.114,0.298-0.268,0.607-0.439,0.949c-0.197,0.315-0.449,0.634-0.731,0.966
					c-0.617,0.581-1.471,1.144-2.499,1.295l-0.387,0.054l-0.197,0.025l-0.1,0.011l-0.285-0.015
					c-0.171-0.014-0.346-0.021-0.521-0.043c-0.101-0.015-0.145-0.008-0.297-0.04c-0.156-0.037-0.313-0.082-0.473-0.13
					c-0.307-0.093-0.653-0.208-0.909-0.347c-1.004-0.535-1.782-1.439-2.264-2.435c-0.457-1.028-0.586-2.121-0.516-3.147
					c0.014-0.26,0.004-0.077,0.009-0.139l0.002-0.009l0.005-0.018l0.009-0.036l0.018-0.071l0.032-0.144l0.07-0.288
					c0.024-0.158,0.13-0.45,0.234-0.711c0.184-0.556,0.488-0.927,0.761-1.318c0.643-0.717,1.402-1.255,2.223-1.538
					c0.817-0.255,1.655-0.379,2.398-0.228c0.309,0.02,0.71,0.166,1.065,0.292c0.353,0.13,0.62,0.336,0.912,0.493
					c0.251,0.21,0.501,0.404,0.713,0.612c0.192,0.228,0.382,0.438,0.542,0.651c0.141,0.231,0.27,0.446,0.39,0.645
					c0.106,0.207,0.173,0.412,0.247,0.596c0.168,0.36,0.182,0.677,0.236,0.885c0.039,0.211,0.061,0.325,0.061,0.325L177.506,311.797
					z M176.127,311.728c0,0,0.002-0.082,0.004-0.233c0.005-0.078,0.008-0.174,0.013-0.286c0.014-0.117,0-0.245-0.038-0.386
					c-0.035-0.142-0.056-0.308-0.106-0.479c-0.078-0.162-0.158-0.338-0.248-0.527c-0.109-0.177-0.266-0.339-0.401-0.528
					c-0.172-0.162-0.373-0.307-0.571-0.468c-0.234-0.095-0.469-0.265-0.718-0.321c-0.251-0.054-0.461-0.153-0.833-0.146
					c-0.589-0.076-1.184,0.112-1.722,0.374c-0.518,0.324-0.934,0.798-1.185,1.332c-0.088,0.284-0.208,0.571-0.193,0.784
					c-0.011,0.109-0.043,0.187-0.026,0.423l0.012,0.295l0.004,0.146l0.002,0.074l0.003,0.037v0.019v0.009
					c0.001-0.054-0.006,0.135,0.006-0.118c0.134,0.536,0.438,0.979,0.817,1.252c0.411,0.256,0.811,0.361,1.146,0.436
					c0.069,0.02,0.089-0.022,0.119,0c0.014,0.006,0.026,0.015,0.037,0.031c0.021,0.016,0.158,0.018,0.231,0.027
					c0.177,0.014,0.349,0.042,0.519,0.063l0.031,0.002l0.018,0.003l0.006,0.001c0.053,0.004-0.411-0.021-0.214-0.011l0.03-0.002
					l0.057-0.002l0.119,0.005c0.321,0.058,0.637,0.043,1.025,0.041c0.168-0.037,0.367-0.063,0.551-0.115
					c0.163-0.075,0.352-0.139,0.51-0.23c0.146-0.114,0.282-0.223,0.407-0.32c0.104-0.105,0.174-0.202,0.254-0.303
					c0.039-0.051,0.078-0.098,0.113-0.145c0.031-0.056,0.043-0.139,0.065-0.199c0.042-0.129,0.07-0.239,0.092-0.329
					c0.044-0.179,0.069-0.276,0.069-0.276L176.127,311.728z"/>
			</g>
			<g>
				<circle fill="#EFEFB4" cx="70.586" cy="159.468" r="2.549"/>
				<path fill="#809748" d="M73.505,159.505c0,0,0.005,0.064,0.014,0.182c-0.006,0.135,0.063,0.256,0.029,0.563
					c-0.012,0.141-0.013,0.318-0.039,0.495c-0.03,0.166-0.064,0.356-0.113,0.564c-0.061,0.197-0.148,0.409-0.249,0.644
					c-0.117,0.217-0.271,0.438-0.449,0.67c-0.39,0.409-0.957,0.81-1.647,0.922l-0.259,0.038l-0.132,0.016l-0.066,0.01l-0.204-0.011
					c-0.108-0.01-0.222-0.012-0.334-0.026c-0.066-0.012-0.088-0.007-0.19-0.028c-0.108-0.025-0.216-0.058-0.323-0.09
					c-0.208-0.065-0.442-0.149-0.613-0.245c-0.667-0.375-1.161-1.009-1.447-1.678c-0.27-0.693-0.323-1.404-0.266-2.063
					c0.01-0.169,0.005-0.051,0.006-0.089l0.001-0.005l0.004-0.012l0.006-0.024l0.012-0.045l0.021-0.092l0.048-0.185
					c0.02-0.101,0.086-0.287,0.155-0.453c0.123-0.354,0.317-0.589,0.49-0.842c0.411-0.455,0.892-0.802,1.416-0.988
					c0.521-0.169,1.063-0.242,1.534-0.135c0.199,0.016,0.455,0.113,0.675,0.199c0.223,0.085,0.39,0.22,0.571,0.323
					c0.155,0.139,0.306,0.269,0.436,0.402c0.117,0.146,0.231,0.282,0.329,0.416c0.084,0.144,0.163,0.28,0.237,0.404
					c0.064,0.129,0.106,0.258,0.152,0.37c0.105,0.226,0.117,0.421,0.156,0.551c0.026,0.134,0.04,0.203,0.04,0.203V159.505z
					 M72.764,159.468c0,0,0.003-0.053,0.005-0.154c-0.007-0.1,0.046-0.259-0.015-0.446c-0.021-0.093-0.035-0.203-0.071-0.315
					c-0.053-0.107-0.108-0.223-0.17-0.346c-0.074-0.114-0.182-0.219-0.276-0.339c-0.115-0.104-0.254-0.19-0.388-0.288
					c-0.153-0.061-0.309-0.165-0.472-0.197c-0.166-0.031-0.301-0.092-0.539-0.084c-0.379-0.038-0.755,0.09-1.102,0.25
					c-0.334,0.204-0.604,0.505-0.767,0.849c-0.058,0.182-0.134,0.365-0.121,0.506c-0.006,0.07-0.023,0.119-0.011,0.27l0.01,0.189
					l0.005,0.094l0.002,0.048v0.024v0.012l0.003,0.005c0-0.035-0.005,0.089,0.003-0.076c0.1,0.343,0.322,0.614,0.588,0.754
					c0.286,0.13,0.545,0.145,0.734,0.159c0.04,0.006,0.037-0.032,0.045-0.021c0.002,0.001,0.005,0.004,0.007,0.012
					c0.006,0.01,0.098,0.011,0.144,0.016c0.112,0.006,0.223,0.027,0.332,0.039l0.02,0.003l0.012,0.001l0.005,0.001
					c0.036,0.003-0.303-0.016-0.158-0.007h0.015h0.031l0.063,0.006c0.173,0.052,0.357,0.083,0.61,0.118
					c0.11-0.005,0.244-0.002,0.371-0.021c0.111-0.033,0.246-0.061,0.357-0.112c0.104-0.065,0.203-0.129,0.293-0.187
					c0.076-0.063,0.13-0.124,0.188-0.189c0.063-0.058,0.109-0.131,0.131-0.224c0.029-0.081,0.05-0.153,0.066-0.209
					c0.032-0.115,0.05-0.176,0.05-0.176L72.764,159.468z"/>
			</g>
			<g>
				<circle fill="#EFEFB4" cx="185.578" cy="335.936" r="2.548"/>
				<path fill="#809748" d="M188.494,335.973c0,0,0.005,0.063,0.018,0.183c-0.008,0.134,0.06,0.255,0.027,0.563
					c-0.014,0.142-0.014,0.318-0.04,0.496c-0.03,0.166-0.063,0.354-0.113,0.562c-0.061,0.2-0.147,0.412-0.25,0.646
					c-0.114,0.217-0.27,0.439-0.447,0.67c-0.392,0.411-0.958,0.81-1.646,0.921l-0.261,0.039l-0.132,0.017l-0.064,0.009l-0.206-0.01
					c-0.109-0.011-0.221-0.012-0.332-0.029c-0.066-0.009-0.091-0.006-0.193-0.027c-0.106-0.024-0.214-0.059-0.32-0.089
					c-0.211-0.065-0.442-0.149-0.612-0.245c-0.667-0.376-1.162-1.008-1.451-1.677c-0.267-0.694-0.32-1.405-0.265-2.063
					c0.009-0.167,0.004-0.051,0.006-0.089l0.003-0.006l0.002-0.011l0.008-0.023l0.009-0.046l0.025-0.093l0.047-0.182
					c0.019-0.103,0.086-0.289,0.154-0.455c0.125-0.353,0.316-0.59,0.492-0.841c0.409-0.456,0.891-0.803,1.414-0.988
					c0.521-0.17,1.062-0.244,1.534-0.138c0.199,0.017,0.453,0.116,0.675,0.201s0.391,0.22,0.572,0.322
					c0.155,0.139,0.306,0.27,0.433,0.404c0.118,0.146,0.234,0.281,0.33,0.416c0.086,0.144,0.165,0.278,0.236,0.403
					c0.065,0.129,0.107,0.258,0.155,0.37c0.105,0.225,0.117,0.421,0.153,0.55c0.028,0.133,0.043,0.204,0.043,0.204L188.494,335.973z
					 M187.753,335.936c0,0,0.003-0.054,0.008-0.153c-0.01-0.101,0.043-0.261-0.016-0.447c-0.021-0.093-0.037-0.203-0.073-0.315
					c-0.051-0.108-0.107-0.223-0.167-0.346c-0.076-0.115-0.182-0.219-0.277-0.34c-0.117-0.103-0.254-0.189-0.388-0.288
					c-0.155-0.061-0.309-0.164-0.473-0.197c-0.163-0.031-0.302-0.091-0.538-0.081c-0.381-0.039-0.756,0.087-1.103,0.247
					c-0.332,0.205-0.603,0.505-0.765,0.848c-0.058,0.184-0.137,0.367-0.12,0.507c-0.007,0.07-0.026,0.12-0.012,0.271l0.01,0.189
					l0.005,0.093l0.001,0.048v0.023l0.002,0.013v0.006c0.001-0.035-0.003,0.087,0.004-0.077c0.1,0.343,0.322,0.613,0.588,0.754
					c0.285,0.131,0.543,0.145,0.734,0.159c0.038,0.006,0.036-0.033,0.045-0.022c0.003,0.002,0.005,0.004,0.005,0.013
					c0.006,0.01,0.101,0.011,0.144,0.017c0.115,0.006,0.224,0.026,0.332,0.039l0.023,0.003l0.008,0.001h0.008
					c0.035,0.002-0.304-0.015-0.158-0.007h0.013h0.033l0.062,0.006c0.175,0.051,0.356,0.082,0.61,0.118
					c0.112-0.004,0.244-0.001,0.371-0.021c0.111-0.033,0.248-0.06,0.358-0.11c0.104-0.067,0.202-0.13,0.293-0.188
					c0.074-0.063,0.13-0.125,0.187-0.19c0.063-0.057,0.109-0.13,0.132-0.224c0.03-0.081,0.053-0.151,0.067-0.209
					c0.033-0.113,0.05-0.176,0.05-0.176L187.753,335.936z"/>
			</g>
		</g>
	</g>
	<g id="logotype_7_">
		<path fill="#35432D" d="M513.652,360.529l0.852,14.881l14.9-0.413l34.464-0.959l15.658-0.436l-0.159-3.314l82.828-2.251
			l9.539-0.26c2.785,2.25,5.752,4.387,8.94,6.359c7.067,4.379,15.288,7.778,24.42,10.091c6.362,1.603,13.3,2.415,20.632,2.415
			c3.457,0,7.075-0.181,10.752-0.536c21.654-2.055,38.295-8.951,49.43-20.498c8.322-8.64,17.326-24.177,13.004-49.179
			c-1.57-9.437-4.857-17.777-9.752-24.694c-4.625-6.529-10.365-12.141-17.068-16.686c-6.139-4.174-13.01-7.731-20.408-10.573
			c-6.553-2.518-13.342-4.926-20.179-7.156l-0.347-0.114l-0.35-0.095c-1.236-0.339-2.641-0.857-4.172-1.538
			c-1.309-0.582-2.513-1.261-3.572-2.016c-0.563-0.395-0.99-0.787-1.336-1.213c-0.322-2.192-0.236-4.041,0.257-5.165
			c0.2-0.455,0.499-0.959,1.678-1.565c1.298-0.659,3.86-1.474,8.576-1.521l0.33-0.004c4.685,0,10.581,0.947,17.522,2.817
			l15.806,4.258l3.231-16.048l5.568-27.648l2.996-14.895l-13.971-2.963l-0.113-7.713l-0.686-46.293l13.641-0.357l-0.58-15.51
			l-0.498-13.369l-0.566-15.176l-15.182,0.405l-43.347,1.156L700.8,93.172l0.126,2.987l-314.438,5.283l-0.039,2.675
			c-1.626-0.163-3.248-0.273-4.853-0.273c-1.979,0-3.975,0.123-5.928,0.366c-5.324,0.655-10.459,2.118-15.274,4.327l-0.001-2.862
			l-15.686,0.359l-33.811,0.78l-4.779,0.11c-1.582-1.032-3.227-1.99-4.979-2.824c-5.266-2.509-11.201-4.211-17.621-5.047
			c-5.006-0.652-10.107-0.978-15.177-0.978c-0.536,0-1.071,0.002-1.61,0.009c-5.506,0.075-10.891,0.452-16.008,1.12
			c-4.99,0.654-9.17,1.317-12.777,2.029l-12.737,2.509l0.362,12.975l2.463,88.518l0.44,15.872l1.997-0.121
			c-1.922,1.741-3.735,3.557-5.431,5.454c-6.821,7.618-12.103,16.149-15.687,25.347c-3.254,8.337-5.653,16.511-7.131,24.288
			c-1.445,7.616-2.279,14.541-2.479,20.582c-0.178,5.558-0.231,9.226-0.171,11.506c0.015,11.976,2.012,23.469,5.942,34.171
			c4.015,10.933,9.764,20.595,17.082,28.719c7.48,8.301,16.49,14.793,26.777,19.292c8.973,3.922,18.759,5.906,29.091,5.906
			c1.851,0,3.743-0.064,5.63-0.189c11.057-0.752,21.127-3.01,29.941-6.714c6.447-2.696,12.148-6.438,17.059-11.148l10.965-0.508
			l29.646-1.366l11.704-0.543l2.563-11.433l17.691-0.536l3.902,12.392l12.869-1.805l14.223-1.993l0.148,5.542l15.488-0.563
			l31.913-1.163l15.269-0.557l-0.486-15.271L513.652,360.529z"/>
		<g>
			<path fill="#CBDF7A" d="M240.912,116.293c3.286-0.647,7.222-1.269,11.803-1.867c4.581-0.601,9.322-0.928,14.222-0.993
				c4.901-0.066,9.766,0.212,14.599,0.839c4.831,0.629,9.169,1.858,13.018,3.693c3.848,1.829,6.998,4.347,9.445,7.545
				c2.449,3.202,3.75,7.295,3.91,12.279c0.13,4.025-0.479,7.549-1.83,10.57c-1.344,3.02-3.173,5.59-5.479,7.713
				c-2.312,2.113-4.992,3.868-8.042,5.258c-3.055,1.392-6.236,2.471-9.549,3.237c-3.313,0.773-6.637,1.313-9.967,1.628
				c-3.326,0.321-6.404,0.465-9.232,0.429l0.727,36.878l-21.16,1.308L240.912,116.293z M263.191,150.137
				c1.21,0.138,2.729,0.239,4.566,0.306c1.839,0.063,3.79,0.013,5.861-0.143c2.066-0.159,4.134-0.463,6.195-0.921
				c2.061-0.459,3.902-1.112,5.529-1.98c1.627-0.865,2.941-2.003,3.951-3.418c1.008-1.415,1.479-3.179,1.409-5.283
				c-0.061-1.981-0.702-3.657-1.919-5.033s-2.771-2.468-4.661-3.278c-1.89-0.808-3.956-1.389-6.192-1.742
				c-2.233-0.349-4.406-0.552-6.512-0.605c-2.111-0.052-4.029,0.023-5.768,0.234c-1.74,0.203-2.994,0.439-3.769,0.7L263.191,150.137
				z"/>
			<path fill="#CBDF7A" d="M337.818,181.835l9.098,0.01l1.127,11.771l-32.279,1.553l-0.392-12.242l7.646-0.689l-3.412-48.018
				l-7.967,0.028l-0.389-12.088l33.811-0.781l0.015,12.259l-7.592,0.089L337.818,181.835z"/>
			<path fill="#CBDF7A" d="M343.615,159.622c-0.129-4.006,0.361-7.907,1.467-11.704c1.105-3.788,2.688-7.302,4.74-10.525
				c2.053-3.225,4.515-6.112,7.391-8.654c2.877-2.548,6.032-4.615,9.465-6.205c3.43-1.588,7.057-2.619,10.879-3.093
				c3.819-0.474,7.721-0.27,11.707,0.607l-0.648,12.571c-4.663-0.052-8.629,0.515-11.902,1.699c-3.27,1.185-6.002,2.71-8.197,4.58
				c-2.193,1.88-3.924,3.937-5.18,6.184c-1.254,2.25-2.211,4.432-2.873,6.554c-0.657,2.132-1.059,4.06-1.207,5.792
				c-0.142,1.739-0.202,2.977-0.181,3.729c0.099,3.057,0.718,5.652,1.867,7.797c1.146,2.144,2.628,3.864,4.45,5.159
				c1.82,1.288,3.879,2.207,6.176,2.733c2.301,0.527,4.688,0.731,7.162,0.599c2.479-0.125,4.918-0.586,7.324-1.359
				c2.408-0.782,4.619-1.829,6.629-3.148l4.179,13.179c-4.081,2.487-8.198,4.134-12.358,4.94c-4.158,0.809-8.193,0.938-12.096,0.389
				c-3.898-0.557-7.569-1.726-11.01-3.524c-3.439-1.79-6.457-4.09-9.054-6.89c-2.598-2.796-4.667-6.016-6.212-9.649
				C344.588,167.746,343.75,163.824,343.615,159.622z"/>
			<path fill="#CBDF7A" d="M400.525,192.166l1.077-74.542l16.644,0.893l0.188,27.136l22.773-28.545l17.371,0.119l-26.486,34.601
				l31.609,36.363l-20.461,2.008l-25.783-32.788l-1.079,34.47L400.525,192.166z"/>
			<path fill="#CBDF7A" d="M467.16,188.455l-1.905-71.365l16.218-0.743l1.279,58.83l25.521-1.19l0.202,13.377L467.16,188.455z"/>
			<path fill="#CBDF7A" d="M509.631,116.053l41.922-1.039l1.117,16.201l-24.162,1.374l-0.331,13.319l13.763,0.505l0.486,15.169
				l-13.375-0.138l0.166,9.848l31.559-0.489l-0.328,15.576l-47.398,1.286L509.631,116.053z"/>
			<path fill="#CBDF7A" d="M566.395,186.343l-0.99-73.35l45.828-1.089l0.064,13.831l-30.369,2.471l0.328,10.291l18.538-1.04
				l1.101,13.347l-19.266,1.74l0.549,33.665L566.395,186.343z"/>
			<path fill="#CBDF7A" d="M617.145,112.617l41.918-1.039l1.118,16.208l-24.167,1.372l-0.322,13.315l13.432-0.802l0.486,15.17
				l-13.047,1.167l0.163,9.845l28.595-1.063l-0.33,15.572l-44.43,1.871L617.145,112.617z"/>
			<path fill="#CBDF7A" d="M669.131,111.185l41.934,0.429l0.555,16.231l-24.199,0.529l-0.794,13.298l15.792-2.335l-0.045,15.179
				l-15.414,2.714l-0.183,9.839l31.48-1.931l-0.876,15.558l-47.334,2.184L669.131,111.185z"/>
			<path fill="#CBDF7A" d="M731.279,121.245l-13.884,0.743l-0.595-13.891l43.348-1.158l0.498,13.369l-13.295,0.349l0.91,61.47
				l-16.744,0.686L731.279,121.245z"/>
			<path fill="#CBDF7A" d="M283.072,380.747c-10.045,0.672-19.225-0.827-27.543-4.462c-8.315-3.639-15.496-8.813-21.529-15.51
				c-6.045-6.707-10.729-14.616-14.077-23.733c-3.347-9.109-5.013-18.808-5.001-29.104c-0.063-1.918-0.007-5.513,0.161-10.773
				c0.175-5.271,0.913-11.341,2.22-18.227c1.307-6.883,3.426-14.081,6.351-21.577c2.923-7.501,7.202-14.404,12.832-20.691
				c5.62-6.289,12.806-11.517,21.554-15.695c8.744-4.188,19.561-6.368,32.447-6.554c2.039-0.066,4.329,0.061,6.882,0.372
				c2.557,0.317,5.201,0.765,7.933,1.357c2.737,0.592,5.41,1.303,8.04,2.121c2.632,0.819,5.033,1.699,7.213,2.654l-9.821,21.856
				c-8.549-2.098-16.123-2.784-22.713-2.071c-6.596,0.726-12.338,2.513-17.221,5.378c-4.887,2.875-8.978,6.632-12.281,11.258
				c-3.3,4.624-5.938,9.832-7.895,15.608c-1.971,5.774-3.328,11.982-4.076,18.627c-0.748,6.636-1.012,13.345-0.8,20.125
				c0.216,6.666,1.331,12.401,3.352,17.19c2.021,4.803,4.799,8.712,8.346,11.697c3.546,3.007,7.771,5.128,12.678,6.386
				c4.899,1.26,10.282,1.619,16.149,1.095c3.384-0.332,6.586-0.998,9.61-2.006c3.016-1.001,5.62-2.637,7.812-4.91
				c2.188-2.277,3.927-5.303,5.226-9.079c1.292-3.769,1.847-8.596,1.658-14.474l-29.981,1.472l0.061-19.347l52.979-3.896
				c2.309,15.646,2.729,28.758,1.256,39.322c-1.475,10.564-4.479,19.119-9.021,25.642c-4.54,6.541-10.471,11.344-17.777,14.398
				C300.781,378.271,292.438,380.11,283.072,380.747z"/>
			<path fill="#CBDF7A" d="M418.306,359.202l-14.631-46.471l-22.649,3.547l-10.026,44.714l-29.646,1.366
				c0.092-0.091,0.136-0.186,0.131-0.287l26.193-131.745l36.854-5.704l41.219,130.731L418.306,359.202z M398.764,291.822
				l-8.549-33.099l-6.926,35.563L398.764,291.822z"/>
			<path fill="#CBDF7A" d="M449.738,362.046l-3.658-136.601l28.82-0.782l26.248,42.855l24.746-44.201l30.883-2.535l6.664,137.912
				l-34.465,0.96l-4.802-83.969l-20.892,40.819l-24.26-37.963l2.627,82.341L449.738,362.046z"/>
			<path fill="#CBDF7A" d="M566.223,220.446l78.828-1.954l2.105,30.475l-45.439,2.587l-0.619,25.039l25.264-1.511l0.908,28.521
				l-24.531,2.199l0.313,18.515l59.349-0.905l-0.62,29.281l-89.131,2.423L566.223,220.446z"/>
			<path fill="#CBDF7A" d="M664.178,335.595l22.979-14.884c1.668,3.444,4.061,6.576,7.189,9.389
				c3.123,2.815,6.607,5.273,10.445,7.377c3.84,2.099,7.877,3.754,12.119,4.947c4.244,1.204,8.361,1.847,12.359,1.941
				c4.687,0.118,8.58-0.634,11.688-2.26c3.103-1.618,5.524-3.763,7.252-6.421c1.734-2.649,2.739-5.643,3.026-8.987
				c0.279-3.339-0.107-6.615-1.182-9.848c-1.071-3.223-2.835-6.293-5.284-9.182c-2.451-2.901-5.492-5.21-9.115-6.939
				c-7.239-3.46-14.644-6.301-22.196-8.523c-7.553-2.23-14.521-4.813-20.908-7.745c-6.389-2.932-11.939-6.77-16.662-11.499
				c-4.725-4.728-7.877-11.329-9.457-19.785c-1.077-6.134-0.957-11.781,0.363-16.955c1.313-5.165,3.656-9.834,7.031-13.995
				c3.37-4.161,7.639-7.743,12.804-10.755c5.159-3.004,10.997-5.354,17.517-7.047c7.832-2.072,16.469-3.143,25.918-3.188
				c9.439-0.048,19.301,1.022,29.585,3.202l-5.567,27.647c-8.472-2.281-15.81-3.405-22.006-3.343
				c-6.203,0.066-11.334,1.133-15.411,3.215c-4.077,2.088-6.987,5.104-8.739,9.065c-1.739,3.968-2.174,8.695-1.285,14.166
				c0.375,2.236,1.246,4.258,2.607,6.098c1.35,1.826,2.995,3.423,4.928,4.784c1.924,1.367,4.002,2.535,6.223,3.525
				c2.225,0.99,4.335,1.764,6.345,2.313c6.63,2.166,13.112,4.465,19.44,6.895c6.324,2.429,12.092,5.412,17.293,8.946
				c5.208,3.532,9.588,7.813,13.154,12.848c3.566,5.043,5.949,11.191,7.158,18.445c2.604,15.058-0.371,27.024-8.93,35.909
				c-8.565,8.883-21.846,14.168-39.858,15.876c-9.79,0.949-18.504,0.445-26.137-1.479c-7.632-1.935-14.337-4.686-20.116-8.265
				c-5.785-3.58-10.676-7.624-14.691-12.16C670.037,344.393,666.746,339.956,664.178,335.595z"/>
		</g>
	</g>
</g>
</svg>
